<svg xmlns="http://www.w3.org/2000/svg" xmlns:xlink="http://www.w3.org/1999/xlink" width="500" zoomAndPan="magnify" viewBox="0 0 375 374.999991" height="500" preserveAspectRatio="xMidYMid meet" version="1.0"><defs><clipPath id="6cc9d5cce3"><path d="M 0 37 L 374 37 L 374 337.566406 L 0 337.566406 Z M 0 37 " clip-rule="nonzero"/></clipPath></defs><path fill="#d4a983" d="M 121.246094 49.605469 C 123.390625 48.382812 125.742188 47.515625 128.105469 47.128906 C 132.367188 46.429688 136.507812 45.242188 140.753906 44.558594 C 142.128906 44.332031 143.25 42.730469 145 43.976562 C 145.371094 44.242188 146.425781 42.640625 147.738281 42.445312 C 153.660156 41.5625 159.539062 40.4375 165.4375 39.421875 C 167.148438 39.125 168.914062 40.039062 170.613281 39.203125 C 171.058594 39.390625 171.496094 39.496094 171.894531 39.097656 C 172.566406 39.082031 173.246094 39.074219 173.917969 39.058594 C 175.015625 39.1875 176.222656 40.242188 177.136719 38.703125 C 177.507812 38.574219 177.90625 38.273438 178.238281 38.34375 C 181.339844 38.976562 184.453125 38.085938 187.515625 38.433594 C 190.707031 38.785156 193.898438 38.128906 197.058594 38.703125 C 198.003906 40.023438 199.195312 39.066406 200.28125 39.058594 C 200.953125 39.074219 201.632812 39.082031 202.304688 39.097656 C 202.703125 39.496094 203.140625 39.390625 203.578125 39.203125 C 203.992188 39.351562 204.324219 39.542969 204.851562 39.535156 C 211.429688 39.441406 217.796875 40.832031 224.171875 42.242188 C 225.929688 42.632812 227.898438 42.195312 229.105469 44.03125 C 232.871094 43.289062 236.113281 45.5625 239.71875 45.9375 C 241.320312 46.105469 243.429688 45.839844 244.757812 47.4375 C 247.835938 46.859375 250.304688 48.578125 252.957031 49.605469 C 253.507812 50.636719 254.367188 51.050781 255.523438 50.894531 C 259.429688 51.925781 263.148438 53.585938 267.140625 54.363281 C 267.457031 54.425781 267.804688 54.574219 268.03125 54.785156 C 270.972656 57.59375 275.265625 57.652344 278.476562 59.914062 C 279.132812 60.375 279.949219 60.292969 280.484375 59.683594 C 283.554688 56.128906 287.652344 54.0625 291.65625 51.835938 C 296.890625 48.933594 302.574219 48.109375 308.449219 47.671875 C 312.847656 47.339844 316.898438 48.207031 321.007812 49.542969 C 323.832031 50.464844 326.652344 51.382812 329.609375 51.988281 C 333.304688 52.742188 336.5625 54.898438 339.859375 56.769531 C 340.953125 57.394531 342.304688 57.5 343.308594 58.363281 C 343.527344 59.046875 344.085938 58.957031 344.613281 58.933594 C 344.863281 59.09375 345.109375 59.246094 345.359375 59.402344 C 345.535156 60.578125 346.703125 61.0625 347.214844 62.035156 C 347.625 62.789062 347.835938 61.71875 348.21875 61.726562 C 348.371094 61.847656 348.519531 61.960938 348.671875 62.082031 C 349.710938 64.621094 351.832031 65.925781 354.214844 66.921875 C 356.546875 69.449219 359.730469 70.972656 361.8125 73.886719 C 363.820312 76.691406 365.546875 79.664062 366.65625 82.824219 C 367.101562 84.105469 367.75 85.230469 368.324219 86.386719 C 369.4375 88.648438 369.550781 91.347656 370.964844 93.355469 C 372.609375 95.6875 371.492188 98.160156 372.027344 100.527344 C 372.835938 104.066406 371.839844 107.695312 371.800781 111.292969 C 371.589844 112.355469 370.546875 113.320312 371.394531 114.519531 C 370.464844 116.007812 370.125 117.675781 370.15625 119.371094 C 370.195312 121.234375 369.710938 122.863281 368.738281 124.433594 C 366.46875 128.089844 364.4375 131.960938 361.949219 135.410156 C 359.671875 138.570312 357.445312 141.972656 354.375 144.535156 C 352.496094 146.105469 351.425781 147.726562 352.941406 150.09375 C 352.285156 151.167969 352.828125 151.898438 353.636719 152.554688 C 353.65625 152.789062 353.6875 153.023438 353.710938 153.257812 C 353.523438 153.390625 353.167969 153.542969 353.175781 153.664062 C 353.226562 154.183594 353.734375 154.03125 354.058594 154.152344 C 355.265625 157.949219 356.304688 161.832031 356.523438 165.777344 C 356.726562 169.550781 356.707031 173.402344 356.96875 177.128906 C 357.234375 180.949219 356.59375 184.660156 356.773438 188.4375 C 356.984375 192.789062 356.402344 197.195312 356.019531 201.570312 C 355.914062 202.738281 356.539062 204.257812 354.789062 205.09375 C 354.472656 205.246094 355.195312 207.054688 354.933594 208.195312 C 354.441406 210.296875 354.117188 212.433594 353.703125 214.550781 C 353.402344 216.113281 353.871094 217.828125 352.972656 219.253906 C 351.410156 221.75 352.300781 224.683594 351.34375 227.339844 C 349.628906 232.066406 348.503906 237.015625 346.421875 241.625 C 345.753906 243.105469 344.945312 244.515625 344.136719 245.925781 C 343.542969 246.957031 342.804688 247.917969 342.9375 249.214844 C 343.066406 250.421875 341.566406 250.554688 341.355469 251.582031 C 340.796875 254.320312 339.082031 256.386719 337.378906 258.484375 C 335.152344 261.214844 333.199219 264.132812 331.660156 267.316406 C 331.390625 267.882812 330.859375 268.410156 330.324219 268.765625 C 328.328125 270.101562 327.210938 272.078125 326.191406 274.152344 C 325.597656 275.367188 324.488281 276.164062 323.5 276.988281 C 320.246094 279.6875 318.03125 283.398438 314.648438 285.957031 C 312.878906 287.300781 311.082031 288.710938 309.503906 290.171875 C 307.964844 291.59375 306.09375 292.527344 304.683594 294.042969 C 304.324219 294.429688 303.96875 294.980469 303.523438 295.097656 C 300.113281 296.011719 298.015625 298.992188 294.96875 300.492188 C 294.539062 300.703125 294.140625 301.535156 293.617188 302.015625 C 292.035156 303.457031 290.367188 304.703125 288.375 305.59375 C 284.710938 307.214844 281.375 309.417969 277.988281 311.550781 C 275.015625 313.429688 271.523438 314.46875 268.527344 316.386719 C 266.710938 317.546875 264.636719 318.671875 262.796875 319.191406 C 259.816406 320.039062 257.234375 321.492188 254.503906 322.714844 C 250.648438 324.441406 246.613281 325.703125 242.691406 327.277344 C 238.941406 328.789062 234.960938 329.753906 231.019531 330.734375 C 229.128906 331.210938 227.023438 330.695312 225.199219 331.746094 C 223.613281 331.761719 221.871094 330.996094 220.632812 332.6875 C 220.242188 332.671875 219.847656 332.664062 219.464844 332.648438 C 218.988281 332.105469 218.65625 332.742188 218.257812 332.792969 C 217.503906 333.164062 216.824219 333.714844 215.882812 333.554688 C 213.113281 333.09375 210.554688 334.484375 207.785156 334.476562 C 206.390625 334.476562 205.019531 334.210938 203.621094 334.265625 C 201.171875 334.355469 198.675781 334.777344 196.335938 333.609375 C 195.6875 333.609375 194.933594 333.335938 194.644531 334.265625 C 194.417969 334.21875 194.199219 334.171875 193.972656 334.128906 C 193.4375 333.359375 193 333.335938 192.699219 334.300781 C 190.035156 333.609375 187.328125 334.679688 184.628906 334.023438 C 183.671875 333.789062 182.554688 334.1875 181.511719 334.300781 C 181.210938 333.335938 180.773438 333.351562 180.238281 334.128906 C 180.011719 334.171875 179.792969 334.21875 179.566406 334.265625 C 179.28125 333.335938 178.523438 333.617188 177.875 333.609375 C 175.605469 334.90625 173.101562 334.136719 170.710938 334.371094 C 168.652344 334.574219 166.492188 334.875 164.492188 334.292969 C 161.6875 333.488281 158.65625 334.097656 155.953125 332.792969 C 155.554688 332.734375 155.222656 332.105469 154.746094 332.648438 C 154.355469 332.664062 153.96875 332.671875 153.578125 332.6875 C 152.332031 330.984375 150.582031 331.8125 149.007812 331.773438 C 147.785156 330.636719 146.15625 330.960938 144.761719 330.824219 C 141.230469 330.484375 137.828125 329.453125 134.570312 328.386719 C 132.027344 327.558594 129.078125 327.21875 126.890625 325.226562 C 126.40625 324.789062 125.425781 324.902344 124.671875 324.78125 C 124.277344 324.714844 123.8125 324.804688 123.507812 324.617188 C 120.507812 322.785156 117.316406 321.230469 114.042969 320.066406 C 109.597656 318.484375 105.5625 316.160156 101.355469 314.152344 C 97.824219 312.472656 94.375 310.660156 91.238281 308.269531 C 89.851562 307.207031 88.105469 306.542969 86.449219 305.910156 C 83.898438 304.9375 81.832031 303.246094 79.921875 301.445312 C 78.632812 300.230469 77.0625 299.445312 75.828125 298.304688 C 73.011719 295.71875 69.269531 294.585938 66.539062 291.960938 C 63.183594 288.734375 59.070312 286.304688 56.101562 282.714844 C 53.800781 279.9375 51.089844 277.628906 48.648438 275.035156 C 47.808594 274.144531 47.113281 273.003906 46.699219 271.851562 C 46.414062 271.050781 46.058594 270.636719 45.371094 270.167969 C 43.3125 268.765625 42.007812 266.660156 40.890625 264.503906 C 39.074219 260.996094 36.035156 258.3125 34.253906 254.855469 C 33 252.441406 31.355469 250.15625 30.777344 247.375 C 30.414062 245.644531 28.890625 244.476562 28.292969 242.75 C 26.761719 238.277344 24.589844 234.082031 23.730469 229.300781 C 23.269531 226.742188 22.125 224.359375 22.167969 221.550781 C 22.191406 220.179688 20.585938 218.828125 20.394531 217.101562 C 20.054688 214.007812 19.527344 210.933594 19.074219 207.847656 C 18.976562 207.167969 18.488281 206.449219 19.390625 205.90625 C 19.714844 205.710938 19.710938 205.199219 19.460938 205.03125 C 17.210938 203.585938 18.261719 201.292969 18.148438 199.40625 C 18.050781 197.851562 17.21875 196.472656 17.308594 195 C 17.613281 189.902344 17.25 184.832031 17.070312 179.753906 C 16.933594 176.023438 17.023438 172.257812 17.296875 168.523438 C 17.648438 163.644531 18.480469 158.816406 20.140625 154.175781 C 20.464844 154.054688 20.976562 154.207031 21.023438 153.6875 C 21.035156 153.574219 20.675781 153.414062 20.484375 153.277344 C 20.507812 153.042969 20.539062 152.8125 20.5625 152.578125 C 21.367188 151.921875 21.90625 151.179688 21.253906 150.117188 C 22.75 147.652344 21.453125 146.148438 19.695312 144.398438 C 17.273438 141.984375 15.121094 139.308594 13.273438 136.351562 C 12.738281 135.5 11.894531 134.488281 11.261719 133.53125 C 9.027344 130.144531 6.871094 126.71875 4.765625 123.257812 C 4.101562 122.171875 4.042969 120.871094 4.046875 119.597656 C 4.046875 117.824219 3.753906 116.105469 2.8125 114.550781 C 3.65625 113.351562 2.621094 112.386719 2.402344 111.324219 C 2.523438 107.144531 1.113281 102.964844 2.441406 98.792969 C 2.480469 98.664062 2.515625 98.53125 2.503906 98.402344 C 1.875 93.835938 4.734375 90.246094 6.09375 86.28125 C 6.515625 85.042969 7.15625 83.765625 7.570312 82.417969 C 8.800781 78.375 11.304688 74.949219 14.042969 71.933594 C 15.710938 70.097656 17.890625 68.476562 19.996094 66.953125 C 22.378906 65.949219 24.5 64.644531 25.539062 62.101562 C 25.691406 61.984375 25.84375 61.871094 25.992188 61.75 C 26.378906 61.75 26.589844 62.820312 26.996094 62.058594 C 27.515625 61.09375 28.6875 60.609375 28.851562 59.417969 C 29.101562 59.265625 29.359375 59.117188 29.605469 58.964844 C 30.132812 58.988281 30.691406 59.070312 30.910156 58.390625 C 35.625 56.265625 40.023438 53.480469 44.890625 51.6875 C 45.191406 51.574219 45.523438 51.519531 45.847656 51.503906 C 47.566406 51.40625 49.136719 50.75 50.742188 50.296875 C 55.082031 49.070312 59.304688 46.972656 64.117188 47.644531 C 66.78125 48.019531 69.519531 47.921875 72.210938 48.3125 C 77.710938 49.113281 82.59375 51.535156 87.164062 54.394531 C 89.449219 55.828125 92.050781 57.164062 93.660156 59.621094 C 94.195312 60.445312 95.199219 60.382812 95.984375 59.800781 C 97.402344 58.746094 99.046875 58.25 100.683594 57.71875 C 102.257812 57.207031 103.789062 56.671875 105.066406 55.519531 C 106.882812 53.882812 109.425781 54.0625 111.554688 53.132812 C 113.816406 52.144531 116.296875 51.632812 118.679688 50.917969 C 119.835938 51.074219 120.695312 50.652344 121.246094 49.625 Z M 121.246094 49.605469 " fill-opacity="1" fill-rule="nonzero"/><path fill="#916a49" d="M 262.660156 220.675781 C 262.660156 222.972656 262.96875 225.285156 262.394531 227.542969 C 262.085938 228.757812 262.832031 229.851562 262.660156 231.058594 C 261.988281 235.660156 261.269531 240.207031 258.148438 243.980469 C 257.332031 244.96875 257.339844 246.421875 256.683594 247.597656 C 254.421875 251.6875 251.941406 255.601562 248.898438 259.179688 C 247.609375 260.695312 245.785156 261.382812 244.367188 262.65625 C 241.710938 265.046875 239.191406 267.613281 236.390625 269.820312 C 232.855469 272.628906 228.78125 274.632812 224.828125 276.816406 C 222.035156 278.351562 219.140625 279.671875 216.273438 281.046875 C 214.492188 281.898438 212.691406 282.148438 210.871094 282.320312 C 208.105469 282.585938 205.449219 283.292969 202.753906 283.859375 C 197.574219 284.953125 192.308594 286.484375 187.078125 285.367188 C 184.128906 284.742188 181.480469 285.390625 178.707031 285.445312 C 176.957031 285.480469 175.453125 284.78125 173.824219 284.484375 C 169.863281 283.777344 165.90625 282.941406 162.140625 281.566406 C 158.347656 280.179688 154.386719 279.160156 150.878906 276.980469 C 149.59375 276.1875 147.632812 276.273438 146.636719 275.289062 C 144.835938 273.519531 142.390625 273.140625 140.476562 271.738281 C 138.65625 270.394531 136.90625 268.691406 135.011719 267.769531 C 131.421875 266.035156 129.777344 262.527344 126.84375 260.296875 C 126.789062 260.257812 126.753906 260.195312 126.714844 260.144531 C 124.617188 256.9375 121.308594 254.621094 119.457031 251.402344 C 117.382812 247.804688 114.269531 244.800781 113.089844 240.660156 C 112.910156 240.019531 112.554688 239.308594 112.765625 238.757812 C 113.742188 236.269531 112.375 234.128906 111.800781 231.910156 C 111.433594 230.46875 110.957031 228.394531 111.417969 227.722656 C 112.375 226.335938 111.328125 225.601562 111.234375 224.628906 C 110.738281 219.125 110.910156 213.691406 113.023438 208.488281 C 113.832031 206.503906 114.320312 204.15625 115.703125 202.679688 C 118.03125 200.199219 119.59375 197.164062 122.1875 194.835938 C 125.207031 192.125 128.660156 190.226562 132.167969 188.574219 C 136.257812 186.640625 140.398438 184.546875 145.152344 184.378906 C 146.457031 184.335938 147.832031 183.949219 149.136719 183.609375 C 153.101562 182.5625 157.078125 182.667969 161.136719 182.742188 C 167.664062 182.863281 174.210938 182.703125 180.734375 182.085938 C 184.550781 181.722656 188.4375 181.859375 192.277344 182.042969 C 195.363281 182.183594 198.402344 181.703125 201.480469 181.761719 C 202.542969 181.785156 203.53125 181.867188 204.273438 182.5 C 205.507812 183.574219 206.90625 183.347656 208.246094 183.179688 C 213.996094 182.441406 219.644531 182.699219 225.273438 184.230469 C 228.011719 184.976562 230.734375 185.949219 233.632812 186.09375 C 235.949219 186.203125 237.886719 187.382812 239.886719 188.371094 C 243.421875 190.128906 247.316406 191.183594 250.414062 193.847656 C 253.3125 196.335938 256.4375 198.574219 258.472656 201.925781 C 261.300781 206.578125 262.6875 211.632812 262.652344 217.070312 C 262.652344 218.265625 262.652344 219.464844 262.652344 220.65625 Z M 262.660156 220.675781 " fill-opacity="1" fill-rule="nonzero"/><path fill="#916a49" d="M 310.644531 75.636719 C 311.933594 76.101562 312.597656 74.375 313.957031 74.898438 C 314.640625 75.160156 315.570312 74.148438 316.363281 75.363281 C 316.640625 75.785156 317.585938 74.746094 318.601562 74.722656 C 320.730469 74.683594 322.84375 74.722656 324.796875 75.328125 C 327.421875 76.132812 329.902344 77.5 332.625 77.945312 C 334.277344 78.214844 335.230469 79.550781 336.308594 80.34375 C 339.40625 82.628906 342.585938 85.050781 344.289062 88.785156 C 344.816406 89.9375 345.335938 91.191406 346.582031 91.914062 C 347.417969 92.40625 347.488281 93.558594 347.578125 94.261719 C 348.046875 98.046875 349.773438 101.773438 348.800781 105.636719 C 347.878906 109.316406 347.441406 113.207031 345.351562 116.484375 C 344.476562 117.855469 343.113281 118.835938 342.613281 120.578125 C 342.371094 121.410156 341.121094 122.101562 340.191406 120.714844 C 339.679688 119.945312 338.78125 119.320312 338.546875 118.496094 C 337.839844 115.984375 335.675781 114.519531 334.445312 112.410156 C 332.1875 108.5625 329.328125 105.167969 326.597656 101.675781 C 323.980469 98.324219 321.550781 94.765625 318.171875 92.1875 C 315.511719 90.148438 313.179688 87.734375 310.449219 85.8125 C 309.234375 84.960938 307.839844 84.355469 306.601562 83.496094 C 303.417969 81.285156 303.328125 80.816406 305.890625 77.964844 C 306.570312 77.210938 309.890625 75.613281 310.636719 75.636719 Z M 310.644531 75.636719 " fill-opacity="1" fill-rule="nonzero"/><path fill="#916a49" d="M 26.445312 113.328125 C 26.589844 112 26.183594 110.808594 25.746094 109.640625 C 24.167969 105.386719 24.445312 101.289062 26.039062 97.019531 C 26.839844 94.878906 27.53125 92.660156 28.820312 90.84375 C 31.855469 86.542969 35.082031 82.347656 39.894531 79.808594 C 43.757812 77.769531 47.613281 75.402344 52.042969 75.296875 C 54.675781 75.234375 57.3125 74.609375 60.121094 75.484375 C 62.128906 76.109375 64.246094 76.457031 66.214844 77.402344 C 67.527344 78.027344 68.636719 78.707031 69.113281 80.191406 C 69.292969 80.75 69.242188 81.234375 68.796875 81.347656 C 66.757812 81.867188 65.890625 83.753906 64.457031 84.960938 C 60.914062 87.9375 57.074219 90.578125 53.941406 94.042969 C 51.800781 96.410156 49.792969 98.890625 47.582031 101.191406 C 44.265625 104.640625 42.03125 108.878906 39.132812 112.628906 C 37.722656 114.453125 37.339844 117.109375 36.644531 119.441406 C 36.28125 120.640625 35.582031 121.695312 34.820312 122.457031 C 34.074219 123.203125 32.675781 123.769531 31.441406 122.78125 C 28.40625 120.335938 27.214844 116.941406 26.445312 113.335938 Z M 26.445312 113.328125 " fill-opacity="1" fill-rule="nonzero"/><g clip-path="url(#6cc9d5cce3)"><path fill="#523d1c" d="M 72.800781 49.386719 C 73.902344 48.925781 74.957031 48.632812 76.136719 49.316406 C 78.65625 50.789062 81.761719 50.667969 84.273438 52.109375 C 87.449219 53.925781 90.964844 55.253906 93.273438 58.414062 C 93.847656 59.199219 94.917969 59.886719 96.480469 58.949219 C 101.695312 55.84375 107.304688 53.609375 113.09375 51.679688 C 117.769531 50.117188 122.4375 48.53125 127.167969 47.136719 C 130.472656 46.164062 133.820312 45.355469 137.15625 44.503906 C 140.890625 43.546875 144.675781 42.769531 148.386719 41.683594 C 151.902344 40.65625 155.546875 40.515625 159.136719 39.964844 C 163.03125 39.367188 166.953125 38.90625 170.867188 38.453125 C 180.394531 37.347656 189.863281 36.824219 199.464844 38.0625 C 205.273438 38.808594 211.121094 39.335938 216.914062 40.210938 C 221.261719 40.867188 225.574219 41.554688 229.859375 42.746094 C 233.722656 43.824219 237.789062 44.511719 241.671875 45.613281 C 246.652344 47.023438 251.652344 48.398438 256.550781 50.167969 C 260.765625 51.695312 265.074219 52.992188 269.238281 54.695312 C 272.203125 55.910156 275.226562 57.085938 277.800781 58.980469 C 279.398438 60.15625 280.304688 59.054688 280.984375 58.339844 C 284.695312 54.394531 288.988281 51.648438 294.433594 50.847656 C 295.242188 50.726562 295.972656 50.164062 296.71875 49.726562 C 298.265625 48.804688 299.949219 48.164062 301.523438 49.792969 C 301.359375 50.117188 301.328125 50.417969 300.828125 50.601562 C 297.066406 51.972656 293.15625 52.929688 289.46875 54.582031 C 288.578125 54.980469 288.34375 55.96875 287.515625 56.046875 C 284.996094 56.289062 283.847656 58.574219 281.910156 59.6875 C 280.832031 60.316406 280.71875 61.304688 282.25 61.824219 C 283.773438 62.335938 284.898438 63.492188 286.144531 64.417969 C 286.90625 64.992188 287.855469 65.964844 286.066406 66.53125 C 285.394531 66.742188 285.644531 66.984375 285.804688 67.332031 C 286.023438 67.796875 286.582031 67.910156 286.761719 67.617188 C 287.6875 66.167969 288.324219 67.195312 289.296875 67.617188 C 290.683594 68.222656 291.761719 69.203125 293.023438 69.933594 C 296.363281 71.863281 299.140625 74.527344 302.171875 76.851562 C 303.539062 77.898438 304.40625 78.8125 306.457031 77.636719 C 310.039062 75.574219 314.0625 74.414062 318.261719 74.234375 C 322.117188 74.066406 325.722656 75.175781 329.109375 76.867188 C 335.703125 80.152344 341.980469 83.851562 346.097656 90.351562 C 348.160156 93.605469 348.867188 97.1875 349.3125 100.835938 C 349.628906 103.371094 349.253906 105.921875 348.957031 108.5 C 348.363281 113.828125 346.53125 118.316406 342.863281 122.085938 C 342.160156 122.8125 342.191406 123.234375 342.515625 124.101562 C 343.050781 125.535156 344.117188 126.621094 344.773438 127.902344 C 347.222656 132.679688 348.492188 137.964844 350.90625 142.785156 C 351.5 143.976562 352.941406 144.597656 353.664062 143.511719 C 355.226562 141.164062 357.210938 139.171875 358.886719 136.953125 C 362.160156 132.617188 365.027344 127.972656 367.96875 123.382812 C 368.867188 121.980469 370.34375 120.472656 368.316406 118.683594 C 367.960938 118.375 367.960938 117.320312 368.1875 116.769531 C 368.828125 115.214844 369.621094 113.714844 370.457031 112.25 C 371.054688 111.203125 371.257812 110.03125 371.25 108.945312 C 371.25 108.171875 370.058594 108.789062 369.558594 108.441406 C 368.925781 107.996094 368.21875 107.492188 369.121094 106.570312 C 369.515625 106.171875 369.664062 105.539062 369.953125 105.023438 C 371.558594 102.15625 370.570312 98.9375 371.191406 95.925781 C 371.234375 95.714844 371.296875 94.523438 370.414062 95.03125 C 367.929688 96.433594 368.292969 94.367188 368.195312 93.1875 C 368.035156 91.425781 368.316406 89.703125 367.792969 87.878906 C 366.089844 81.882812 362.929688 76.667969 358.886719 72.152344 C 355.210938 68.046875 350.882812 64.578125 346.105469 61.613281 C 339.332031 57.402344 332.617188 53.238281 324.652344 51.585938 C 321.199219 50.871094 317.734375 50.109375 314.226562 49.84375 C 310.417969 49.558594 306.5625 49.808594 302.769531 50.320312 C 302.105469 50.410156 301.992188 50.085938 301.699219 49.792969 C 301.824219 48.09375 303.222656 47.890625 304.375 47.855469 C 312.328125 47.574219 320.269531 47.492188 327.996094 49.957031 C 332.71875 51.46875 337.054688 53.761719 341.277344 56.289062 C 344.734375 58.347656 348.144531 60.496094 351.460938 62.765625 C 354.675781 64.960938 357.398438 67.769531 359.996094 70.628906 C 362.960938 73.886719 366.097656 77.085938 367.976562 81.15625 C 369.320312 84.0625 370.308594 87.109375 370.539062 90.34375 C 370.585938 91.023438 370.53125 91.550781 371.414062 91.867188 C 372.214844 92.148438 372.726562 92.949219 372.917969 93.84375 C 373.6875 97.449219 373.777344 101.019531 372.449219 104.535156 C 372.140625 105.355469 372.058594 105.890625 372.78125 106.84375 C 374.011719 108.449219 373.316406 110.523438 372.691406 112.363281 C 372.503906 112.914062 372.328125 113.519531 371.972656 113.957031 C 371.007812 115.15625 370.632812 116.144531 372.3125 117.078125 C 372.660156 117.273438 372.933594 117.9375 372.667969 118.664062 C 371.558594 121.695312 370.382812 124.652344 368.714844 127.480469 C 365.667969 132.648438 362.0625 137.371094 358.148438 141.859375 C 356.601562 143.628906 354.828125 145.238281 353.023438 146.753906 C 352.351562 147.320312 352.285156 147.675781 352.601562 148.367188 C 355.1875 153.957031 355.898438 160.074219 357.210938 165.988281 C 358.589844 172.210938 358.910156 178.625 358.589844 185.042969 C 358.484375 187.1875 357.875 189.3125 357.933594 191.347656 C 357.996094 193.386719 357.898438 195.316406 357.347656 197.210938 C 356.59375 199.820312 356.742188 202.589844 356.464844 205.199219 C 356.140625 208.1875 355.476562 211.195312 355.414062 214.242188 C 355.378906 216.046875 354.746094 217.726562 353.96875 219.371094 C 353.386719 220.59375 353.417969 222.097656 353.378906 223.332031 C 353.25 227.421875 351.476562 230.945312 350.113281 234.585938 C 349.253906 236.886719 348.617188 239.257812 347.742188 241.542969 C 346.460938 244.890625 344.589844 247.917969 342.597656 250.851562 C 341.558594 252.390625 341.015625 254.132812 340.140625 255.722656 C 339.007812 257.789062 337.347656 259.511719 336.398438 261.578125 C 335.363281 263.824219 334.164062 265.953125 332.777344 267.929688 C 330.25 271.519531 328.136719 275.433594 324.886719 278.503906 C 324.125 279.222656 323.542969 280.148438 322.933594 281.015625 C 321.152344 283.511719 318.785156 285.421875 316.371094 287.210938 C 314.726562 288.421875 313.691406 290.210938 311.964844 291.289062 C 311.390625 291.652344 311.027344 292.453125 310.117188 291.960938 C 309.835938 291.8125 309.421875 291.886719 309.542969 292.40625 C 309.84375 293.667969 308.933594 294.457031 308.164062 294.941406 C 305.25 296.78125 303.011719 299.519531 300.128906 301.253906 C 297.179688 303.019531 294.695312 305.394531 291.703125 307.046875 C 286.722656 309.792969 282.28125 313.414062 277.195312 315.988281 C 273.355469 317.925781 269.433594 319.714844 265.570312 321.570312 C 262.476562 323.054688 259.089844 324.261719 255.800781 325.484375 C 252.285156 326.789062 248.726562 327.84375 245.152344 328.929688 C 243.257812 329.503906 241.417969 330.339844 239.554688 331.035156 C 237.371094 331.851562 235.085938 331.917969 232.90625 332.628906 C 230.800781 333.3125 228.578125 333.691406 226.375 333.960938 C 222.300781 334.46875 218.308594 335.386719 214.167969 335.660156 C 210.804688 335.878906 207.425781 336.714844 203.976562 336.84375 C 201.675781 336.925781 199.421875 337.433594 197.066406 337.222656 C 195.023438 337.039062 192.933594 337.515625 190.859375 337.546875 C 186.953125 337.597656 183.035156 337.613281 179.128906 337.523438 C 174.253906 337.410156 169.308594 337.3125 164.5625 336.558594 C 160.066406 335.839844 155.503906 335.253906 151.007812 334.542969 C 146.148438 333.773438 141.386719 332.542969 136.574219 331.648438 C 134.273438 331.214844 131.769531 330.710938 129.648438 329.21875 C 128.441406 328.367188 126.664062 328.789062 125.199219 328.003906 C 122.90625 326.78125 120.304688 326.238281 117.859375 325.304688 C 115.679688 324.464844 113.640625 323.160156 111.304688 322.746094 C 109.273438 322.382812 107.613281 321.183594 105.910156 320.234375 C 103.464844 318.882812 100.8125 318.070312 98.375 316.757812 C 95.679688 315.308594 93.046875 313.753906 90.453125 312.117188 C 88.101562 310.632812 85.996094 308.617188 83.605469 307.46875 C 81.070312 306.25 78.957031 304.550781 76.65625 303.09375 C 74.097656 301.472656 71.601562 299.648438 69.355469 297.6875 C 67.964844 296.480469 66.15625 295.726562 65.085938 294.125 C 64.757812 293.644531 64.132812 293.328125 64.570312 292.601562 C 64.714844 292.363281 64.78125 291.960938 64.449219 292 C 61.773438 292.347656 60.703125 289.878906 59.085938 288.65625 C 56.621094 286.792969 54.085938 284.726562 52.167969 282.382812 C 49.851562 279.546875 47.160156 276.988281 45.160156 273.871094 C 42.738281 270.109375 39.789062 266.617188 37.828125 262.640625 C 36.148438 259.238281 33.90625 256.167969 32.421875 252.667969 C 31.386719 250.230469 29.832031 248.050781 28.25 245.886719 C 27.289062 244.582031 26.972656 242.808594 26.40625 241.226562 C 24.597656 236.125 22.597656 231.078125 21.121094 225.882812 C 20.597656 224.066406 20.796875 221.75 20.222656 220.035156 C 19.390625 217.554688 18.773438 215.066406 18.5625 212.539062 C 18.359375 210.125 17.882812 207.703125 17.6875 205.3125 C 17.5 203.019531 17.046875 200.402344 16.632812 197.996094 C 16.222656 195.617188 15.871094 193.078125 15.953125 190.542969 C 16.042969 187.699219 15.128906 184.886719 15.234375 181.996094 C 15.410156 177.371094 15.742188 172.746094 16.585938 168.214844 C 17.621094 162.691406 19.03125 157.230469 20.273438 151.746094 C 20.289062 151.6875 20.261719 151.597656 20.289062 151.550781 C 22.847656 148.21875 20.742188 146.261719 18.335938 144.089844 C 13.628906 139.835938 9.917969 134.691406 6.5 129.398438 C 4.554688 126.386719 2.773438 123.203125 1.769531 119.679688 C 1.410156 118.398438 1.152344 117.253906 2.585938 116.476562 C 3.257812 116.113281 3.382812 115.59375 2.894531 115.019531 C 1.65625 113.570312 1.316406 111.707031 0.675781 110.019531 C 0.300781 109.023438 0.449219 107.445312 1.332031 106.8125 C 2.457031 106.011719 2.042969 105.363281 1.746094 104.542969 C 0.472656 101.027344 0.171875 97.464844 1.28125 93.84375 C 1.460938 93.257812 1.628906 92.585938 2.191406 92.359375 C 3.90625 91.6875 3.6875 90.125 3.90625 88.804688 C 4.742188 83.789062 6.539062 79.25 10.007812 75.433594 C 12.210938 73.003906 14.300781 70.484375 16.640625 68.160156 C 19.640625 65.171875 22.824219 62.480469 26.484375 60.332031 C 28.820312 58.957031 30.972656 57.304688 33.339844 55.964844 C 39.40625 52.539062 45.589844 49.71875 52.605469 48.496094 C 56.757812 47.769531 60.875 47.980469 64.984375 47.613281 C 67.046875 47.429688 69.566406 47.265625 71.761719 48.40625 C 72.5 48.789062 71.988281 49.082031 72.105469 49.398438 C 71.882812 49.785156 72.304688 50.699219 71.390625 50.5 C 68.515625 49.898438 65.613281 50.027344 62.707031 49.859375 C 57.382812 49.558594 52.246094 50.925781 47.144531 51.90625 C 43.441406 52.621094 39.925781 54.71875 36.523438 56.550781 C 31.507812 59.257812 26.777344 62.433594 22.125 65.769531 C 19.300781 67.789062 16.910156 70.226562 14.738281 72.695312 C 10.605469 77.386719 7.722656 82.976562 5.996094 89.09375 C 5.59375 90.519531 6.265625 91.769531 6.070312 93.128906 C 5.867188 94.53125 5.828125 95.957031 3.738281 95.226562 C 2.683594 94.855469 2.976562 95.941406 2.941406 96.230469 C 2.457031 99.730469 3.058594 103.136719 4.824219 106.125 C 5.804688 107.777344 5.308594 108.269531 3.914062 108.472656 C 2.660156 108.652344 2.925781 109.136719 3.054688 110.0625 C 3.332031 112.160156 4.628906 113.738281 5.566406 115.472656 C 6.234375 116.714844 6.371094 118.089844 5.59375 118.820312 C 4.492188 119.855469 4.773438 120.714844 5.269531 121.613281 C 6.386719 123.617188 7.648438 125.542969 8.839844 127.511719 C 12.242188 133.125 16.503906 138.101562 20.441406 143.320312 C 21.269531 144.421875 22.234375 144.378906 22.890625 143.132812 C 23.8125 141.398438 24.875 139.699219 25.511719 137.859375 C 26.972656 133.621094 28.1875 129.335938 30.988281 125.648438 C 31.742188 124.660156 32.40625 122.839844 30.699219 121.484375 C 29.183594 120.277344 28.332031 118.550781 27.546875 116.785156 C 26.324219 114.039062 25.707031 111.21875 25.171875 108.238281 C 24.664062 105.402344 24.429688 102.746094 24.777344 99.925781 C 25.425781 94.605469 27.621094 90.082031 31.3125 86.234375 C 34.09375 83.335938 37.367188 81.066406 40.808594 79.082031 C 45.222656 76.535156 49.816406 74.246094 55.089844 74.246094 C 59.789062 74.246094 64.117188 75.742188 68.238281 77.90625 C 68.984375 78.296875 69.324219 78.511719 70.335938 77.890625 C 72.726562 76.421875 74.625 74.398438 76.949219 72.859375 C 79.628906 71.085938 82.035156 68.929688 85.015625 67.566406 C 85.820312 67.195312 86.34375 66.152344 86.953125 67.472656 C 87.332031 68.289062 87.867188 68.175781 88.21875 67.882812 C 88.808594 67.390625 88.476562 66.878906 87.875 66.5625 C 86.574219 65.875 87.238281 65.121094 87.902344 64.554688 C 89.042969 63.582031 90.226562 62.640625 91.5 61.863281 C 93.078125 60.902344 93.28125 60.21875 91.734375 59.28125 C 89.902344 58.164062 88.5 56.511719 86.320312 55.738281 C 84.636719 55.140625 83.152344 53.8125 81.308594 53.300781 C 78.84375 52.613281 76.566406 51.316406 73.96875 51.058594 C 72.882812 50.953125 72.65625 50.34375 72.785156 49.414062 Z M 354.109375 165.070312 C 354.1875 165.054688 354.261719 165.039062 354.335938 165.023438 C 354.09375 163.777344 353.984375 162.496094 353.589844 161.304688 C 352.535156 158.089844 352.113281 154.710938 350.519531 151.613281 C 349.125 148.886719 348.875 145.691406 347.652344 142.824219 C 345.195312 137.046875 343.464844 130.867188 340.050781 125.601562 C 335.984375 119.347656 332.867188 112.550781 328.046875 106.691406 C 323.980469 101.742188 319.363281 97.382812 315.191406 92.570312 C 311.714844 88.550781 307.273438 85.496094 303.355469 81.898438 C 301.304688 80.011719 298.945312 78.3125 296.703125 76.554688 C 293.398438 73.96875 290.230469 71.199219 286.941406 68.574219 C 285.035156 67.050781 283.132812 65.460938 281.035156 64.246094 C 277.355469 62.117188 273.53125 60.234375 269.734375 58.316406 C 268.210938 57.546875 266.605469 56.945312 265.027344 56.292969 C 263.527344 55.675781 262.132812 54.792969 260.515625 54.484375 C 259.183594 54.226562 258.367188 53.140625 256.851562 52.839844 C 252.285156 51.949219 247.835938 50.410156 243.394531 48.976562 C 238.121094 47.273438 232.824219 45.613281 227.40625 44.472656 C 223.144531 43.585938 218.824219 43.019531 214.492188 42.429688 C 209.339844 41.738281 204.113281 41.917969 198.976562 40.515625 C 196.839844 39.925781 194.148438 40.007812 191.71875 39.8125 C 184.492188 39.230469 177.410156 40.863281 170.234375 41.011719 C 168.289062 42.800781 165.828125 41.367188 163.597656 42.054688 C 161.054688 42.835938 158.203125 42.695312 155.488281 42.972656 C 148.5 43.707031 141.816406 45.644531 135.125 47.550781 C 130.601562 48.851562 126.058594 50.148438 121.660156 51.8125 C 119.097656 52.789062 115.921875 51.859375 113.882812 54.347656 C 113.808594 54.4375 113.648438 54.453125 113.523438 54.5 C 108.097656 56.519531 102.9375 59.078125 97.769531 61.671875 C 92.933594 64.09375 88.582031 67.1875 84.585938 70.679688 C 79.785156 74.867188 74.519531 78.472656 69.964844 82.953125 C 68.246094 84.640625 66.125 85.910156 64.34375 87.546875 C 61.265625 90.382812 58.308594 93.347656 55.375 96.335938 C 51.65625 100.136719 47.847656 103.953125 44.65625 108.09375 C 41.902344 111.664062 39.746094 115.878906 37.421875 119.863281 C 34.601562 124.710938 31.757812 129.515625 29.789062 134.8125 C 28.066406 139.421875 25.699219 143.78125 24.6875 148.664062 C 24.371094 150.195312 23.988281 151.832031 23.164062 153.113281 C 20.945312 156.566406 21.25 160.6875 19.875 164.382812 C 18.925781 166.945312 19.195312 169.964844 18.855469 172.769531 C 18.570312 175.101562 18.261719 177.441406 18.464844 179.777344 C 18.636719 181.761719 18.179688 183.632812 18.585938 185.765625 C 19.71875 191.726562 19.824219 197.867188 20.597656 203.933594 C 21.203125 208.617188 22.011719 213.261719 22.695312 217.925781 C 23.625 224.222656 25.765625 230.199219 27.960938 236.140625 C 29.5625 240.464844 32.277344 244.257812 34.042969 248.476562 C 36.273438 253.800781 39.367188 258.597656 42.527344 263.335938 C 45.0625 267.144531 46.988281 271.421875 50.320312 274.640625 C 52.824219 277.0625 54.109375 280.601562 57.390625 282.292969 C 57.5625 282.382812 57.714844 282.515625 57.855469 282.660156 C 60.90625 285.617188 63.976562 288.550781 67.347656 291.160156 C 68.328125 291.925781 69.234375 292.800781 70.351562 293.363281 C 71.382812 293.878906 71.195312 295.402344 72.21875 295.777344 C 75.148438 296.835938 77.175781 299.1875 79.671875 300.855469 C 81.648438 302.175781 83.710938 303.351562 85.699219 304.632812 C 87.601562 305.855469 89.660156 306.835938 91.523438 308.105469 C 94.300781 309.996094 96.984375 312.003906 100.199219 313.164062 C 102.207031 313.898438 104.113281 314.910156 106.089844 315.722656 C 106.921875 316.070312 107.027344 317.171875 107.871094 317.367188 C 111.378906 318.191406 114.75 319.570312 118.039062 320.890625 C 121.789062 322.398438 125.695312 323.425781 129.453125 324.917969 C 131.617188 325.777344 134.0625 326.238281 136.289062 327.160156 C 136.824219 327.386719 137.300781 327.679688 137.789062 327.386719 C 138.710938 326.835938 139.472656 327.363281 140.292969 327.589844 C 143.03125 328.34375 145.742188 329.269531 148.515625 329.804688 C 152.734375 330.613281 156.996094 331.210938 161.257812 331.773438 C 163.074219 332.015625 165.097656 332.914062 166.582031 332.628906 C 169.851562 331.992188 172.859375 333.53125 176.105469 332.914062 C 178.367188 332.484375 180.863281 333.457031 183.21875 333.285156 C 184.726562 333.179688 186.28125 332.847656 187.765625 333.035156 C 192.050781 333.59375 196.351562 333.148438 200.589844 332.9375 C 203.933594 332.769531 207.410156 333.027344 210.699219 331.941406 C 212.296875 331.414062 213.996094 331.753906 215.585938 331.429688 C 220.785156 330.363281 226.082031 329.777344 231.195312 328.296875 C 233.171875 327.722656 235.367188 327.722656 237.261719 327.21875 C 240.910156 326.246094 244.457031 324.796875 248.109375 323.703125 C 252.039062 322.527344 255.863281 321.027344 259.738281 319.660156 C 260.945312 319.238281 262.144531 318.792969 263.359375 318.394531 C 266.265625 317.425781 268.492188 315.226562 271.433594 314.214844 C 276.351562 312.523438 280.566406 309.425781 284.957031 306.6875 C 287.96875 304.808594 291.386719 303.390625 294.0625 301.21875 C 297.214844 298.660156 300.703125 296.554688 303.679688 293.703125 C 307.234375 290.308594 311.503906 287.675781 314.65625 283.792969 C 314.800781 283.617188 315.230469 283.664062 315.351562 283.484375 C 316.613281 281.597656 319.539062 281.363281 320.066406 278.738281 C 320.113281 278.519531 320.421875 278.355469 320.59375 278.15625 C 323.648438 274.605469 327.007812 271.316406 329.148438 267.007812 C 330.28125 264.722656 332.324219 262.882812 333.417969 260.582031 C 334.707031 257.867188 336.910156 255.792969 338.011719 252.902344 C 338.828125 250.773438 339.785156 248.566406 341.1875 246.605469 C 342.433594 244.863281 343.15625 242.742188 344.117188 240.789062 C 345.035156 238.910156 345.660156 236.910156 346.417969 234.988281 C 347.578125 232.015625 348.625 229.011719 349.660156 225.996094 C 350.609375 223.21875 350.917969 220.277344 351.589844 217.433594 C 352.074219 215.382812 352.667969 213.261719 352.886719 211.164062 C 353.445312 205.765625 353.75 200.339844 354.835938 195.007812 C 354.917969 194.585938 355.023438 194.15625 355.046875 193.726562 C 355.203125 190.527344 354.433594 187.191406 356.480469 184.273438 C 356.5625 184.152344 356.53125 183.796875 356.433594 183.730469 C 354.738281 182.539062 355.597656 180.59375 355.535156 179.21875 C 355.386719 175.742188 355.015625 172.28125 354.863281 168.804688 C 354.8125 167.542969 354.375 166.289062 354.109375 165.039062 Z M 340.765625 120.941406 C 342.539062 119.273438 343.527344 117.199219 344.539062 115.125 C 346.402344 111.300781 347.066406 107.21875 347.117188 103.011719 C 347.164062 99.148438 346.4375 95.601562 344.121094 92.304688 C 342.371094 89.824219 341.195312 87.035156 338.625 85.078125 C 333.699219 81.347656 328.613281 78.003906 322.40625 76.917969 C 320.570312 76.59375 318.738281 75.433594 316.769531 76.519531 C 316.511719 76.660156 316.113281 76.546875 315.78125 76.5625 C 312.558594 76.738281 309.664062 77.964844 306.78125 79.273438 C 305.863281 79.6875 305.90625 79.964844 306.683594 80.597656 C 307.964844 81.648438 309.308594 82.710938 310.613281 83.632812 C 313.1875 85.457031 315.035156 87.96875 317.5 89.886719 C 320.996094 92.601562 323.785156 96.167969 326.695312 99.546875 C 329.105469 102.347656 331.675781 105.015625 333.585938 108.183594 C 334.375 109.496094 335.808594 110.394531 336.285156 111.746094 C 337.417969 114.980469 339.097656 117.902344 340.773438 120.933594 Z M 33.316406 120.878906 C 35.195312 118.714844 35.609375 116.023438 36.917969 113.730469 C 38.230469 111.421875 40.105469 109.484375 41.351562 107.292969 C 42.972656 104.449219 45.441406 102.445312 47.128906 99.78125 C 47.539062 99.140625 48.449219 99.035156 48.707031 98.574219 C 50.855469 94.621094 54.546875 92.15625 57.617188 89.101562 C 60.664062 86.054688 63.792969 83.105469 67.324219 80.605469 C 68.019531 80.117188 68.441406 79.6875 67.203125 79.171875 C 62.851562 77.386719 58.535156 75.628906 53.648438 76.570312 C 51.300781 77.023438 49.015625 77.4375 46.769531 78.433594 C 40.6875 81.128906 35.039062 84.21875 31.265625 90.011719 C 30.578125 91.070312 30.40625 92.300781 29.605469 93.273438 C 26.703125 96.824219 26.761719 101.199219 26.996094 105.324219 C 27.140625 107.875 27.621094 110.605469 28.769531 113.101562 C 30.035156 115.847656 31.152344 118.648438 33.308594 120.886719 Z M 100.652344 57.8125 C 100.644531 57.253906 100.183594 57.433594 99.941406 57.289062 C 99.695312 57.132812 99.519531 57.410156 99.582031 57.496094 C 99.746094 57.742188 99.996094 57.953125 100.253906 58.113281 C 100.304688 58.144531 100.523438 57.910156 100.652344 57.8125 Z M 274.683594 57.585938 C 274.570312 57.328125 274.488281 57.132812 274.246094 57.296875 C 274.019531 57.449219 273.507812 57.238281 273.582031 57.765625 C 273.605469 57.910156 273.898438 58.144531 273.960938 58.113281 C 274.222656 57.976562 274.457031 57.757812 274.683594 57.585938 Z M 28.542969 59.03125 C 28.519531 59.078125 28.460938 59.132812 28.46875 59.160156 C 28.535156 59.351562 28.632812 59.359375 28.722656 59.183594 C 28.738281 59.152344 28.703125 59.078125 28.671875 59.054688 C 28.640625 59.03125 28.589844 59.046875 28.542969 59.039062 Z M 286.90625 67.894531 C 286.859375 67.875 286.800781 67.8125 286.777344 67.828125 C 286.722656 67.859375 286.6875 67.917969 286.640625 67.964844 C 286.730469 67.988281 286.820312 68.015625 286.910156 68.039062 C 286.910156 67.996094 286.910156 67.941406 286.910156 67.894531 Z M 20.605469 207.324219 C 20.585938 207.363281 20.53125 207.417969 20.546875 207.445312 C 20.613281 207.621094 20.710938 207.621094 20.796875 207.445312 C 20.8125 207.417969 20.773438 207.347656 20.734375 207.324219 C 20.703125 207.304688 20.652344 207.324219 20.613281 207.324219 Z M 20.605469 207.324219 " fill-opacity="1" fill-rule="nonzero"/></g><path fill="#523d1c" d="M 264.273438 218.84375 C 264.679688 224.5625 263.835938 229.902344 262.808594 235.125 C 262.125 238.617188 261.164062 242.183594 259.242188 245.464844 C 257.507812 248.414062 256.238281 251.65625 254.210938 254.472656 C 251.554688 258.160156 247.996094 260.988281 244.976562 264.324219 C 241.855469 267.777344 238.195312 270.5625 234.339844 273.011719 C 230.199219 275.644531 225.824219 277.921875 221.351562 280.019531 C 217.40625 281.875 213.277344 283.226562 209.167969 284.515625 C 204.828125 285.875 200.296875 286.785156 195.648438 286.847656 C 191.242188 286.90625 186.859375 287.285156 182.441406 287.066406 C 175.953125 286.75 169.554688 286.128906 163.339844 284.011719 C 156.300781 281.613281 149.453125 278.804688 143.070312 274.996094 C 137.359375 271.585938 132.0625 267.640625 127.5 262.703125 C 123.96875 258.875 120.113281 255.371094 117.542969 250.722656 C 115.679688 247.359375 113.734375 243.988281 112.738281 240.3125 C 111.667969 236.375 110.472656 232.445312 110.253906 228.257812 C 110.089844 225.152344 109.808594 222.011719 109.660156 218.90625 C 109.476562 215.253906 110.007812 211.582031 111.328125 208.101562 C 113.460938 202.492188 117.324219 198.085938 121.390625 193.832031 C 122.347656 192.828125 123.722656 192.324219 124.882812 191.675781 C 128.886719 189.433594 132.621094 186.703125 137.253906 185.527344 C 141.3125 184.492188 145.339844 183.261719 149.390625 182.148438 C 152.152344 181.386719 155.011719 181.519531 157.816406 181.292969 C 161.890625 180.96875 165.988281 180.871094 170.070312 180.644531 C 176.277344 180.304688 182.523438 180.59375 188.746094 180.425781 C 194.742188 180.261719 200.726562 180.546875 206.691406 180.855469 C 213.082031 181.195312 219.585938 180.734375 225.832031 182.410156 C 230.765625 183.730469 235.722656 184.96875 240.519531 186.867188 C 244.773438 188.550781 248.417969 191.175781 252.144531 193.574219 C 255.355469 195.640625 257.65625 199.011719 259.824219 202.316406 C 263.195312 207.46875 264.628906 213.074219 264.273438 218.835938 Z M 111.996094 226.078125 C 112.496094 227.316406 111.96875 228.597656 112.214844 229.925781 C 113.046875 234.347656 114.09375 238.636719 115.867188 242.800781 C 117.242188 246.015625 118.960938 248.996094 120.875 251.867188 C 121.964844 253.5 123.515625 254.820312 124.695312 256.394531 C 126.859375 259.300781 129.605469 261.699219 132.109375 264.234375 C 134.515625 266.667969 137.308594 268.886719 140.601562 270.570312 C 145.574219 273.101562 150.019531 276.664062 155.433594 278.429688 C 156.558594 278.792969 157.765625 278.933594 158.835938 279.410156 C 163.046875 281.273438 167.339844 282.59375 171.945312 283.285156 C 178.691406 284.296875 185.382812 284.710938 192.203125 284.417969 C 201.472656 284.011719 210.246094 281.761719 218.800781 278.398438 C 219.949219 277.945312 221.183594 277.871094 222.292969 277.207031 C 225.363281 275.351562 228.59375 273.746094 231.601562 271.804688 C 234.25 270.101562 237.183594 268.828125 239.515625 266.644531 C 241.515625 264.777344 243.113281 262.453125 245.15625 260.734375 C 248.054688 258.289062 250.46875 255.421875 252.761719 252.539062 C 255.785156 248.722656 257.769531 244.273438 259.46875 239.605469 C 261.332031 234.46875 261.996094 229.269531 262.253906 223.953125 C 262.492188 219.035156 262.464844 214.085938 261.324219 209.242188 C 261.15625 208.539062 261.179688 207.875 260.757812 207.113281 C 257.355469 200.9375 253.070312 195.664062 246.660156 192.4375 C 245.339844 191.773438 244.417969 190.59375 242.984375 190.066406 C 239.417969 188.746094 235.773438 187.730469 232.113281 186.695312 C 228.613281 185.707031 225.113281 184.734375 221.546875 184.199219 C 213.105469 182.929688 204.558594 182.910156 196.050781 182.855469 C 184.988281 182.796875 173.921875 182.691406 162.871094 183.277344 C 157.976562 183.542969 153.125 183.957031 148.328125 185.074219 C 144.324219 186 140.355469 187.066406 136.417969 188.226562 C 133.964844 188.949219 131.453125 189.636719 129.3125 191.167969 C 127.929688 192.15625 126.285156 192.933594 125.046875 193.898438 C 123.613281 195.023438 121.796875 195.632812 120.597656 197.105469 C 118.53125 199.640625 116.5625 202.234375 114.683594 204.925781 C 113.28125 206.949219 112.722656 209.105469 112.414062 211.371094 C 111.757812 216.25 111.355469 221.160156 112.011719 226.101562 Z M 111.996094 226.078125 " fill-opacity="1" fill-rule="nonzero"/><path fill="#523d1c" d="M 295.925781 198.457031 C 291.882812 198.449219 287.824219 195.007812 286.746094 191.355469 C 286.332031 189.953125 286.074219 188.519531 285.265625 187.207031 C 284.46875 185.902344 285.15625 184.3125 285.132812 182.863281 C 285.078125 178.957031 286.65625 175.726562 290.417969 174.058594 C 294.5 172.25 294.667969 172.785156 297.585938 174.980469 C 302.6875 178.820312 302.6875 184.234375 302.761719 189.5625 C 302.792969 191.597656 301.902344 193.847656 300.816406 195.832031 C 299.546875 198.136719 297.464844 198.371094 295.933594 198.460938 Z M 295.925781 198.457031 " fill-opacity="1" fill-rule="nonzero"/><path fill="#523d1c" d="M 79.175781 198.457031 C 74.996094 198.460938 73.125 196.855469 71.996094 192.632812 C 71.230469 189.796875 71.609375 187.019531 71.738281 184.144531 C 71.859375 181.332031 73.578125 179.421875 74.097656 176.941406 C 74.542969 174.820312 79.566406 172.800781 81.785156 173.359375 C 86.847656 174.632812 88.734375 177.847656 88.988281 182.289062 C 89.195312 185.820312 88.425781 189.34375 86.644531 192.699219 C 85.722656 194.433594 84.433594 195.511719 83.25 196.832031 C 82.117188 198.09375 80.667969 198.660156 79.167969 198.457031 Z M 79.175781 198.457031 " fill-opacity="1" fill-rule="nonzero"/><path fill="#523d1c" d="M 197.535156 240.960938 C 195.460938 242.449219 193.75 241.25 192.132812 240.402344 C 190.242188 239.414062 189.175781 238.011719 187.132812 234.738281 C 186.015625 236.195312 184.976562 237.648438 183.828125 239.023438 C 182.34375 240.796875 180.304688 241.453125 178.066406 241.632812 C 177.460938 241.679688 176.917969 241.519531 176.828125 240.945312 C 176.714844 240.253906 177.476562 240.386719 177.839844 240.28125 C 183.625 238.59375 185.011719 234.714844 185.730469 229.324219 C 185.835938 228.515625 185.359375 228.5 184.824219 228.410156 C 179.753906 227.550781 175.78125 224.734375 172.171875 221.28125 C 166.71875 216.046875 169.195312 208.59375 174.472656 205.921875 C 176.761719 204.769531 179.394531 203.894531 182.257812 203.96875 C 185.214844 204.050781 188.152344 203.613281 191.160156 203.945312 C 193.535156 204.210938 195.738281 204.84375 198.019531 205.355469 C 200.808594 205.984375 202.421875 207.582031 203.636719 209.703125 C 205.351562 212.695312 205.863281 216.71875 203.554688 219.546875 C 200.289062 223.542969 196.085938 226.402344 191.199219 228.136719 C 190.316406 228.453125 188.808594 228.03125 188.574219 228.945312 C 188.273438 230.121094 188.550781 231.5625 188.929688 232.785156 C 190.066406 236.496094 192.269531 239.265625 196.269531 240.230469 C 196.691406 240.335938 197.050781 240.683594 197.550781 240.976562 Z M 197.535156 240.960938 " fill-opacity="1" fill-rule="nonzero"/><path fill="#523d1c" d="M 132.832031 218.203125 C 132.578125 219.546875 131.535156 220.164062 130.300781 220.226562 C 129.183594 220.277344 127.960938 219.570312 128.179688 218.414062 C 128.382812 217.320312 128.375 215.617188 130.222656 215.503906 C 131.097656 215.449219 132.804688 217.183594 132.832031 218.203125 Z M 132.832031 218.203125 " fill-opacity="1" fill-rule="nonzero"/><path fill="#523d1c" d="M 243.726562 215.472656 C 245.746094 215.503906 245.769531 217.222656 246.027344 218.308594 C 246.296875 219.464844 245.136719 220.210938 244.003906 220.226562 C 242.738281 220.238281 241.65625 219.605469 241.371094 218.25 C 241.191406 217.425781 243.023438 215.503906 243.71875 215.472656 Z M 243.726562 215.472656 " fill-opacity="1" fill-rule="nonzero"/><path fill="#523d1c" d="M 237.328125 205.871094 C 238.890625 205.992188 239.773438 206.707031 239.847656 208.140625 C 239.929688 209.632812 238.867188 210.410156 237.628906 210.335938 C 236.390625 210.261719 235.3125 209.46875 235.3125 207.945312 C 235.3125 206.519531 236.355469 206.132812 237.320312 205.871094 Z M 237.328125 205.871094 " fill-opacity="1" fill-rule="nonzero"/><path fill="#523d1c" d="M 136.898438 205.886719 C 137.894531 206.113281 138.890625 206.5625 138.882812 207.976562 C 138.875 209.5 137.78125 210.28125 136.546875 210.34375 C 135.308594 210.402344 134.238281 209.613281 134.355469 208.117188 C 134.46875 206.730469 135.269531 205.914062 136.90625 205.886719 Z M 136.898438 205.886719 " fill-opacity="1" fill-rule="nonzero"/><path fill="#523d1c" d="M 141.191406 217.382812 C 141.238281 215.835938 141.886719 215.203125 143.070312 215.277344 C 144.097656 215.34375 144.746094 215.957031 144.738281 217.050781 C 144.730469 218.265625 143.945312 218.925781 142.859375 218.875 C 141.910156 218.828125 141.078125 218.285156 141.191406 217.382812 Z M 141.191406 217.382812 " fill-opacity="1" fill-rule="nonzero"/><path fill="#523d1c" d="M 232.996094 217.335938 C 233.101562 218.339844 232.226562 218.867188 231.300781 218.890625 C 230.230469 218.914062 229.429688 218.226562 229.460938 217.011719 C 229.488281 215.941406 230.125 215.308594 231.171875 215.277344 C 232.363281 215.238281 232.988281 215.886719 232.996094 217.34375 Z M 232.996094 217.335938 " fill-opacity="1" fill-rule="nonzero"/><path fill="#ffc7c7" d="M 325.816406 208.027344 C 328.460938 209.097656 330.855469 212.960938 330.589844 215.722656 C 330.460938 217.09375 330.90625 218.574219 330.039062 219.800781 C 328.152344 222.480469 325.84375 224.449219 322.433594 225.128906 C 317.472656 226.125 312.441406 226.441406 307.445312 227.113281 C 306.964844 227.179688 306.527344 227.164062 306.109375 226.910156 C 306.195312 225.921875 305.621094 225.300781 304.761719 225.339844 C 303.914062 225.378906 304.332031 226.273438 304.203125 226.796875 C 301.351562 227.542969 298.648438 226.652344 295.933594 226.003906 C 292.34375 225.144531 289.199219 223.640625 287.335938 220.179688 C 286.035156 217.773438 287.3125 213.058594 289.417969 211.40625 C 291.300781 209.929688 293.40625 208.863281 295.464844 207.808594 C 297.390625 206.828125 299.714844 206.226562 301.863281 206.21875 C 303.960938 206.210938 305.792969 205.257812 308.019531 205.476562 C 312.703125 205.929688 317.492188 205.214844 322.140625 206.519531 C 323.089844 208.058594 324.609375 208.683594 325.808594 208.027344 Z M 325.816406 208.027344 " fill-opacity="1" fill-rule="nonzero"/><path fill="#ffc7c7" d="M 52.054688 206.519531 C 55.457031 205.6875 58.867188 205.296875 62.390625 205.660156 C 64.003906 205.824219 65.703125 205.574219 67.324219 205.3125 C 68.925781 205.054688 70.144531 206.140625 71.714844 206.203125 C 74.015625 206.300781 76.484375 206.722656 78.527344 207.726562 C 80.464844 208.675781 82.433594 209.746094 84.273438 211.03125 C 86.054688 212.273438 86.886719 213.601562 86.878906 215.640625 C 86.117188 216.160156 86.605469 216.324219 87.117188 216.484375 C 87.125 217.132812 87.132812 217.78125 87.140625 218.429688 C 85.980469 218.574219 86.605469 219.167969 86.832031 219.667969 C 85.453125 223.621094 82.074219 224.933594 78.488281 225.980469 C 77.855469 226.160156 77.132812 226.117188 76.558594 226.394531 C 74.40625 227.421875 72.199219 226.847656 70.003906 226.796875 C 69.875 226.273438 70.289062 225.371094 69.445312 225.339844 C 68.585938 225.300781 68.003906 225.921875 68.09375 226.910156 C 66.511719 227.40625 64.980469 226.71875 63.402344 226.703125 C 59.085938 226.652344 54.886719 225.527344 50.617188 225.039062 C 47.558594 224.683594 43.699219 219.863281 43.660156 216.71875 C 43.609375 212.652344 45.484375 209.203125 48.398438 208.027344 C 49.597656 208.683594 51.113281 208.058594 52.0625 206.519531 Z M 52.054688 206.519531 " fill-opacity="1" fill-rule="nonzero"/><path fill="#ffc7c7" d="M 52.054688 206.519531 C 51.105469 208.058594 49.589844 208.683594 48.390625 208.027344 C 49.183594 206.488281 50.828125 207.007812 52.054688 206.519531 Z M 52.054688 206.519531 " fill-opacity="1" fill-rule="nonzero"/><path fill="#ffc7c7" d="M 325.816406 208.027344 C 324.613281 208.683594 323.097656 208.058594 322.148438 206.519531 C 323.378906 207.007812 325.023438 206.480469 325.816406 208.027344 Z M 325.816406 208.027344 " fill-opacity="1" fill-rule="nonzero"/><path fill="#ffc7c7" d="M 68.09375 226.910156 C 68.003906 225.921875 68.585938 225.300781 69.445312 225.339844 C 70.289062 225.378906 69.875 226.273438 70.003906 226.796875 C 69.40625 227.566406 68.710938 226.554688 68.09375 226.910156 Z M 68.09375 226.910156 " fill-opacity="1" fill-rule="nonzero"/><path fill="#ffc7c7" d="M 304.210938 226.796875 C 304.335938 226.273438 303.921875 225.371094 304.769531 225.339844 C 305.628906 225.300781 306.207031 225.921875 306.117188 226.910156 C 305.5 226.554688 304.796875 227.570312 304.210938 226.796875 Z M 304.210938 226.796875 " fill-opacity="1" fill-rule="nonzero"/><path fill="#ffc7c7" d="M 86.824219 219.667969 C 86.605469 219.175781 85.980469 218.574219 87.132812 218.429688 C 87.867188 219.054688 87.617188 219.425781 86.824219 219.667969 Z M 86.824219 219.667969 " fill-opacity="1" fill-rule="nonzero"/><path fill="#ffc7c7" d="M 87.117188 216.492188 C 86.597656 216.339844 86.117188 216.175781 86.878906 215.644531 C 87.164062 215.863281 87.171875 216.167969 87.117188 216.492188 Z M 87.117188 216.492188 " fill-opacity="1" fill-rule="nonzero"/><path fill="#ffffff" d="M 185.40625 207.871094 C 188.988281 208.109375 192.578125 207.679688 196.019531 208.804688 C 196.328125 208.910156 196.75 208.855469 196.960938 209.046875 C 197.695312 209.710938 199.382812 209.9375 198.871094 211.195312 C 198.410156 212.328125 197.261719 211.15625 196.417969 211.082031 C 192.210938 210.714844 187.992188 210.085938 183.761719 210.578125 C 181.234375 210.871094 178.636719 210.96875 176.324219 212.335938 C 175.695312 212.703125 174.867188 212.507812 174.535156 211.609375 C 174.226562 210.78125 174.90625 210.613281 175.402344 210.304688 C 178.496094 208.40625 182.019531 208.253906 185.40625 207.871094 Z M 185.40625 207.871094 " fill-opacity="1" fill-rule="nonzero"/><path fill="#ffffff" d="M 292.230469 181.792969 C 292.269531 179.535156 293.648438 178.050781 295.679688 178.074219 C 297.972656 178.097656 299.40625 179.710938 299.390625 182.230469 C 299.375 183.890625 297.59375 185.667969 295.964844 185.65625 C 294.214844 185.640625 292.199219 183.558594 292.230469 181.792969 Z M 292.230469 181.792969 " fill-opacity="1" fill-rule="nonzero"/><path fill="#ffffff" d="M 78.671875 178.074219 C 80.648438 178.109375 82.042969 179.742188 81.972656 181.941406 C 81.921875 183.617188 79.75 185.699219 78.089844 185.660156 C 76.488281 185.625 74.746094 183.714844 74.824219 182.085938 C 74.945312 179.484375 76.339844 178.027344 78.679688 178.082031 Z M 78.671875 178.074219 " fill-opacity="1" fill-rule="nonzero"/><path fill="#ffffff" d="M 75.757812 186.085938 C 76.808594 186.417969 76.867188 187.523438 76.957031 188.265625 C 77.046875 188.964844 76.785156 190.15625 75.546875 190.007812 C 74.476562 189.871094 73.730469 189.175781 73.636719 188.046875 C 73.527344 186.605469 74.914062 186.671875 75.757812 186.09375 Z M 75.757812 186.085938 " fill-opacity="1" fill-rule="nonzero"/><path fill="#ffffff" d="M 300.605469 188.0625 C 300.453125 189.085938 299.789062 189.8125 298.734375 190 C 297.503906 190.21875 297.203125 189.0625 297.246094 188.339844 C 297.292969 187.511719 297.480469 186.402344 298.90625 186.429688 C 300.023438 186.453125 300.429688 187.011719 300.605469 188.0625 Z M 300.605469 188.0625 " fill-opacity="1" fill-rule="nonzero"/></svg>