<svg xmlns="http://www.w3.org/2000/svg" xmlns:xlink="http://www.w3.org/1999/xlink" width="500" zoomAndPan="magnify" viewBox="0 0 375 187.499995" height="250" preserveAspectRatio="xMidYMid meet" version="1.0"><defs><g/><clipPath id="e31bfdc648"><path d="M 0.5 0 L 374.5 0 L 374.5 187 L 0.5 187 Z M 0.5 0 " clip-rule="nonzero"/></clipPath><clipPath id="13d9b1880f"><path d="M 180 136 L 193 136 L 193 148 L 180 148 Z M 180 136 " clip-rule="nonzero"/></clipPath><clipPath id="40cd4d1428"><path d="M 179.503906 138.9375 L 191.765625 135.019531 L 195.066406 145.335938 L 182.804688 149.257812 Z M 179.503906 138.9375 " clip-rule="nonzero"/></clipPath><clipPath id="1c48beed54"><path d="M 181.050781 140.40625 C 180.605469 142.257812 181.75 143.558594 182.839844 144.089844 L 189.207031 147.207031 L 192.488281 141.023438 C 192.988281 139.914062 192.992188 138.90625 192.5 137.941406 C 191.824219 136.605469 190.3125 135.882812 188.832031 136.1875 C 187.921875 136.371094 187.152344 136.894531 186.664062 137.65625 C 186.535156 137.863281 186.425781 138.078125 186.347656 138.300781 C 186.117188 138.148438 185.863281 138.023438 185.589844 137.929688 C 184.644531 137.59375 183.597656 137.671875 182.722656 138.148438 C 181.894531 138.601562 181.285156 139.425781 181.050781 140.40625 Z M 181.050781 140.40625 " clip-rule="nonzero"/></clipPath><clipPath id="4ba1a20742"><path d="M 283 127 L 298 127 L 298 142 L 283 142 Z M 283 127 " clip-rule="nonzero"/></clipPath><clipPath id="c97760baf1"><path d="M 284.605469 126.421875 L 299.195312 131.40625 L 295.003906 143.683594 L 280.414062 138.699219 Z M 284.605469 126.421875 " clip-rule="nonzero"/></clipPath><clipPath id="d7908854e4"><path d="M 285.042969 128.9375 C 283.292969 130.398438 283.46875 132.464844 284.136719 133.757812 L 288.035156 141.300781 L 295.601562 137.695312 C 296.875 136.988281 297.601562 136.019531 297.816406 134.742188 C 298.121094 132.972656 297.183594 131.203125 295.539062 130.433594 C 294.53125 129.964844 293.421875 129.914062 292.410156 130.300781 C 292.136719 130.402344 291.878906 130.535156 291.640625 130.695312 C 291.527344 130.382812 291.375 130.082031 291.179688 129.796875 C 290.507812 128.796875 289.449219 128.128906 288.265625 127.960938 C 287.148438 127.804688 285.972656 128.160156 285.042969 128.9375 Z M 285.042969 128.9375 " clip-rule="nonzero"/></clipPath><clipPath id="58c37d6d15"><path d="M 285 38 L 299 38 L 299 52 L 285 52 Z M 285 38 " clip-rule="nonzero"/></clipPath><clipPath id="1ea0aa5355"><path d="M 290.335938 35.964844 L 300.519531 47.542969 L 290.777344 56.109375 L 280.597656 44.53125 Z M 290.335938 35.964844 " clip-rule="nonzero"/></clipPath><clipPath id="92f1b8650c"><path d="M 289.46875 38.367188 C 287.222656 38.765625 286.347656 40.644531 286.28125 42.097656 L 285.914062 50.578125 L 294.273438 51.214844 C 295.730469 51.230469 296.839844 50.753906 297.664062 49.75 C 298.804688 48.367188 298.875 46.363281 297.832031 44.882812 C 297.191406 43.972656 296.25 43.378906 295.179688 43.210938 C 294.890625 43.164062 294.601562 43.152344 294.316406 43.167969 C 294.375 42.84375 294.390625 42.503906 294.367188 42.160156 C 294.28125 40.960938 293.691406 39.851562 292.746094 39.121094 C 291.855469 38.429688 290.660156 38.152344 289.46875 38.367188 Z M 289.46875 38.367188 " clip-rule="nonzero"/></clipPath><clipPath id="b14e31b057"><path d="M 81 138 L 93 138 L 93 149 L 81 149 Z M 81 138 " clip-rule="nonzero"/></clipPath><clipPath id="2d6d6404b2"><path d="M 79.675781 140.992188 L 91.078125 137.058594 L 94.386719 146.648438 L 82.988281 150.585938 Z M 79.675781 140.992188 " clip-rule="nonzero"/></clipPath><clipPath id="cdc01d308c"><path d="M 81.15625 142.335938 C 80.777344 144.078125 81.878906 145.269531 82.910156 145.746094 L 88.941406 148.53125 L 91.882812 142.667969 C 92.328125 141.617188 92.308594 140.671875 91.828125 139.777344 C 91.164062 138.542969 89.738281 137.898438 88.355469 138.214844 C 87.503906 138.410156 86.796875 138.914062 86.355469 139.636719 C 86.238281 139.832031 86.144531 140.039062 86.070312 140.25 C 85.851562 140.113281 85.613281 140 85.355469 139.914062 C 84.460938 139.621094 83.484375 139.71875 82.675781 140.183594 C 81.910156 140.625 81.355469 141.410156 81.15625 142.335938 Z M 81.15625 142.335938 " clip-rule="nonzero"/></clipPath></defs><g clip-path="url(#e31bfdc648)"><path stroke-linecap="butt" transform="matrix(0.787246, 0, 0, 0.787246, 11.995833, 58.287079)" fill="none" stroke-linejoin="miter" d="M 39.427711 -15.582857 C 27.687819 -15.582857 19.0392 -4.180375 12.216567 12.77449 L 5.081332 12.77449 C 2.506098 12.77449 -2.182912 20.872336 7.740919 20.872336 L 9.249341 20.872336 C 7.532518 25.898756 5.944705 31.237777 4.431321 36.785199 C -0.669528 56.493927 -2.391312 66.000957 7.532518 66.000957 C 17.972388 66.000957 17.242987 53.943502 18.413999 43.503632 C 19.0392 37.852011 20.106012 29.515993 21.827797 21.626547 C 27.896219 22.043348 33.126078 22.589159 32.813477 22.589159 C 37.085687 22.589159 38.360899 12.77449 35.473064 12.77449 L 24.274021 12.77449 C 26.616045 5.535055 29.925643 0.196034 34.510453 0.196034 C 37.085687 0.196034 38.465099 1.783847 38.465099 5.301845 C 38.465099 6.160257 39.0903 6.914468 40.707885 6.914468 C 49.014131 6.914468 56.382576 -15.582857 39.427711 -15.582857 Z M 38.668538 66.000957 C 53.068016 66.000957 60.337222 45.299846 63.746058 39.439823 C 64.91707 37.4104 60.649823 34.205003 58.928038 36.785199 C 56.690214 40.194035 54.03559 42.223458 50.309191 42.223458 C 43.903358 42.223458 44.76177 36.130226 46.557983 29.962565 C 49.009169 20.976536 53.172216 11.186677 59.032239 -0.662377 C 62.341836 -7.38081 60.858223 -10.685446 56.481814 -10.685446 C 47.838157 -10.685446 42.940747 5.639256 32.158505 36.785199 C 30.024881 42.848659 28.541268 49.567093 28.541268 55.010314 C 28.541268 61.311947 31.091693 66.000957 38.668538 66.000957 Z M 67.785057 66.000957 C 75.366864 66.000957 81.772697 59.074123 86.039944 50.430466 L 86.456745 50.430466 C 85.181533 59.282523 88.28273 66.000957 95.626365 66.000957 C 107.470457 66.000957 113.330479 49.358692 118.5653 39.439823 C 119.632112 37.4104 115.359902 34.205003 113.772089 36.785199 C 111.638466 40.194035 108.95407 42.223458 105.336833 42.223458 C 100.647823 42.223458 99.476811 37.956211 103.099009 30.170965 C 105.441033 23.973533 108.22963 20.663935 108.22963 16.629898 C 108.22963 14.258103 107.262056 12.67029 104.478422 12.67029 C 99.476811 12.67029 98.7226 16.734098 95.209564 16.734098 C 92.420967 16.734098 92.862578 12.67029 84.323121 12.67029 C 65.988844 12.67029 56.799377 35.063414 56.799377 49.909465 C 56.799377 59.386723 60.545623 66.000957 67.785057 66.000957 Z M 78.463099 43.920433 C 75.158464 43.920433 73.124078 41.781848 73.124078 38.164611 C 73.124078 33.475601 76.642076 28.24078 82.189498 28.24078 C 85.598334 28.24078 87.731957 30.379366 87.731957 33.892402 C 87.731957 38.373012 84.010521 43.920433 78.463099 43.920433 Z M 155.134616 36.785199 C 153.02084 39.985634 150.783017 42.327658 147.582581 42.431858 C 146.173397 35.817625 140.521776 27.278169 140.521776 25.248745 C 140.521776 20.976536 148.311983 20.663935 148.207783 17.2551 C 148.311983 13.841302 145.106585 10.015665 138.492352 10.015665 C 129.327694 10.015665 121.750849 25.898756 114.198814 36.130226 L 113.757204 36.785199 C 107.351371 47.433469 109.589195 65.896756 128.365083 65.896756 C 148.207783 65.896756 156.955639 45.637256 159.947674 39.439823 C 160.915248 37.4104 156.851439 34.205003 155.134616 36.785199 Z M 124.534484 43.920433 C 121.021448 43.920433 118.570262 41.990248 118.570262 39.439823 C 121.021448 36.338626 124.326084 31.967179 126.98567 28.03238 C 127.948282 26.652967 128.806693 26.652967 129.536095 28.03238 C 131.044517 30.900367 131.902928 33.579801 131.902928 36.130226 C 131.902928 40.506635 129.223494 43.920433 124.534484 43.920433 Z M 159.848436 66.000957 C 166.87947 66.000957 168.258883 60.140935 168.258883 54.697713 L 168.258883 49.909465 C 168.258883 40.402435 173.597904 31.550378 179.770527 31.550378 C 182.24156 31.550378 183.829373 32.82559 183.829373 35.271814 C 183.829373 39.648224 178.832725 46.808268 178.832725 54.906114 C 178.832725 60.870336 181.174749 66.000957 188.205783 66.000957 C 202.605261 66.000957 209.869505 45.299846 213.283303 39.439823 C 214.454315 37.4104 210.182106 34.205003 208.465283 36.785199 C 206.33166 39.985634 204.327046 42.223458 201.121649 42.223458 C 197.712813 42.223458 196.199429 40.506635 196.199429 36.889399 C 196.199429 31.550378 199.613226 28.13658 199.613226 22.484958 C 199.613226 17.150899 196.536839 12.67029 190.026806 12.67029 C 185.312986 12.67029 181.070548 14.908114 177.11094 18.738712 C 174.768916 21.105546 173.052093 20.663935 174.223105 16.287526 C 175.523127 11.290877 179.249525 5.535055 182.00835 -0.662377 C 185.109548 -7.485011 183.829373 -10.685446 179.457926 -10.685446 C 170.809307 -10.685446 165.916859 5.639256 155.134616 36.785199 C 153.000993 42.848659 151.51738 49.567093 151.51738 55.010314 C 151.51738 61.311947 153.651004 66.000957 159.848436 66.000957 Z M 224.794947 66.000957 C 237.264241 66.000957 248.671684 56.836299 258.069552 39.439823 C 259.245526 37.4104 254.973317 34.205003 253.281304 36.785199 C 243.253272 51.288877 222.239561 50.430466 222.239561 36.130226 C 222.239561 30.796167 225.003348 25.794556 229.791596 25.794556 C 232.996993 25.794556 234.168005 27.590769 234.168005 29.515993 C 234.168005 33.371401 231.721781 33.788202 231.721781 35.609225 C 231.721781 36.993599 233.542804 38.581412 237.264241 38.581412 C 241.84905 38.581412 248.150683 34.959214 248.150683 25.794556 C 248.150683 18.867722 243.670073 12.67029 233.438604 12.67029 C 216.587939 12.67029 206.33166 30.275166 206.33166 45.195645 C 206.33166 56.285526 211.983281 66.000957 224.794947 66.000957 Z M 262.113513 66.000957 C 269.690358 66.000957 276.096191 59.074123 280.3684 50.430466 L 280.785201 50.430466 C 279.509988 59.282523 282.606224 66.000957 289.949859 66.000957 C 301.798913 66.000957 307.658935 49.358692 312.893755 39.439823 C 313.960567 37.4104 309.688358 34.205003 308.100545 36.785199 C 305.966922 40.194035 303.282525 42.223458 299.665289 42.223458 C 294.976279 42.223458 293.805267 37.956211 297.427465 30.170965 C 299.769489 23.973533 302.553124 20.663935 302.553124 16.629898 C 302.553124 14.258103 301.590512 12.67029 298.806878 12.67029 C 293.805267 12.67029 293.051056 16.734098 289.533058 16.734098 C 286.749423 16.734098 287.191034 12.67029 278.651577 12.67029 C 260.3173 12.67029 251.127832 35.063414 251.127832 49.909465 C 251.127832 59.386723 254.874078 66.000957 262.113513 66.000957 Z M 272.791555 43.920433 C 269.481957 43.920433 267.452534 41.781848 267.452534 38.164611 C 267.452534 33.475601 270.970532 28.24078 276.512992 28.24078 C 279.926789 28.24078 282.060413 30.379366 282.060413 33.892402 C 282.060413 38.373012 278.338976 43.920433 272.791555 43.920433 Z M 350.217283 36.785199 C 348.078698 39.985634 346.049274 42.223458 342.873648 42.223458 C 338.055629 42.223458 336.259415 39.985634 336.259415 36.993599 C 336.259415 30.379366 340.839263 25.898756 340.839263 19.805524 C 340.839263 14.049702 330.582984 7.227069 320.554953 7.227069 C 314.799131 7.227069 311.077694 12.461889 311.077694 16.838299 C 311.077694 20.663935 312.457107 22.043348 314.590731 22.797559 C 312.769708 27.719779 310.115083 33.892402 308.080697 36.785199 C 306.701285 38.814622 311.494495 42.223458 312.898717 39.439823 C 314.590731 35.921825 318.108729 28.657581 320.033952 24.415144 C 324.306161 26.002956 325.685573 28.657581 325.685573 29.724393 C 325.685573 34.855014 318.212929 44.883045 318.212929 54.801914 C 318.212929 60.245135 321.204964 66.000957 329.957783 66.000957 C 344.357261 66.000957 351.596696 45.299846 355.005532 39.439823 C 356.206315 37.4104 351.934106 34.205003 350.217283 36.785199 Z M 360.23539 66.000957 C 366.745424 66.000957 372.942856 59.074123 377.319265 50.430466 L 377.736066 50.430466 C 376.565054 59.282523 380.07809 66.000957 386.900724 66.000957 C 398.749778 66.000957 404.6098 49.358692 409.844621 39.439823 C 410.911433 37.4104 406.639224 34.205003 405.051411 36.785199 C 402.917787 40.194035 400.233391 42.223458 396.616154 42.223458 C 391.927144 42.223458 390.756132 37.956211 394.373369 30.170965 L 406.430823 -0.662377 C 409.19461 -6.7308 407.706035 -10.685446 403.984599 -10.685446 C 400.779201 -10.685446 396.824555 -8.864423 392.785556 0.925436 C 388.175936 11.916079 388.175936 17.80091 386.483923 17.80091 C 383.700289 17.80091 384.141899 12.67029 375.602443 12.67029 C 357.268165 12.67029 348.078698 35.063414 348.078698 50.842305 C 348.078698 59.386723 351.824944 66.000957 360.23539 66.000957 Z M 369.950821 43.920433 C 365.887012 43.920433 364.403399 41.260846 364.403399 38.164611 C 364.403399 33.475601 367.921397 28.24078 373.151256 28.24078 C 377.319265 28.24078 379.011278 30.796167 379.011278 33.892402 C 379.011278 38.373012 375.289842 43.920433 369.950821 43.920433 Z M 446.408976 36.785199 C 444.300162 39.985634 442.062338 42.327658 438.85694 42.431858 C 437.452718 35.817625 431.801097 27.278169 431.801097 25.248745 C 431.801097 20.976536 439.586342 20.663935 439.482142 17.2551 C 439.586342 13.841302 436.385906 10.015665 429.771673 10.015665 C 420.607015 10.015665 413.025209 25.898756 405.478135 36.130226 L 405.031563 36.785199 C 398.62573 47.433469 400.868516 65.896756 419.639442 65.896756 C 439.482142 65.896756 448.234961 45.637256 451.226996 39.439823 C 452.189607 37.4104 448.13076 34.205003 446.408976 36.785199 Z M 415.813805 43.920433 C 412.300769 43.920433 409.849583 41.990248 409.849583 39.439823 C 412.300769 36.338626 415.605405 31.967179 418.260029 28.03238 C 419.222641 26.652967 420.086014 26.652967 420.815416 28.03238 C 422.323838 30.900367 423.18225 33.579801 423.18225 36.130226 C 423.18225 40.506635 420.502815 43.920433 415.813805 43.920433 Z M 415.813805 43.920433 " stroke="#c15b75" stroke-width="17.200054" stroke-opacity="1" stroke-miterlimit="4"/></g><g fill="#e19fae" fill-opacity="1"><g transform="translate(13.558025, 110.245341)"><g><path d="M 29.472656 -64.234375 C 20.234375 -64.234375 13.433594 -55.25 8.0625 -41.898438 L 2.433594 -41.898438 C 0.417969 -41.898438 -3.273438 -35.519531 4.535156 -35.519531 L 5.710938 -35.519531 C 4.367188 -31.570312 3.105469 -27.375 1.929688 -23.007812 C -2.097656 -7.472656 -3.441406 0 4.367188 0 C 12.59375 0 12.007812 -9.488281 12.929688 -17.71875 C 13.433594 -22.167969 14.273438 -28.71875 15.617188 -34.929688 C 20.402344 -34.59375 24.519531 -34.175781 24.265625 -34.175781 C 27.625 -34.175781 28.632812 -41.898438 26.367188 -41.898438 L 17.550781 -41.898438 C 19.398438 -47.609375 22 -51.808594 25.609375 -51.808594 C 27.625 -51.808594 28.71875 -50.546875 28.71875 -47.777344 C 28.71875 -47.105469 29.222656 -46.519531 30.480469 -46.519531 C 37.03125 -46.519531 42.824219 -64.234375 29.472656 -64.234375 Z M 29.472656 -64.234375 "/></g></g></g><g fill="#e19fae" fill-opacity="1"><g transform="translate(35.304902, 110.245341)"><g><path d="M 7.136719 0 C 18.472656 0 24.183594 -16.289062 26.871094 -20.90625 C 27.792969 -22.503906 24.433594 -25.023438 23.089844 -23.007812 C 21.328125 -20.320312 19.230469 -18.726562 16.289062 -18.726562 C 11.25 -18.726562 11.921875 -23.511719 13.351562 -28.382812 C 15.28125 -35.433594 18.558594 -43.160156 23.175781 -52.480469 C 25.777344 -57.769531 24.601562 -60.371094 21.160156 -60.371094 C 14.359375 -60.371094 10.496094 -47.527344 2.015625 -23.007812 C 0.335938 -18.222656 -0.839844 -12.929688 -0.839844 -8.648438 C -0.839844 -3.695312 1.175781 0 7.136719 0 Z M 7.136719 0 "/></g></g></g><g fill="#e19fae" fill-opacity="1"><g transform="translate(56.464035, 110.245341)"><g><path d="M 8.902344 0 C 14.863281 0 19.898438 -5.457031 23.257812 -12.257812 L 23.59375 -12.257812 C 22.585938 -5.289062 25.023438 0 30.816406 0 C 40.136719 0 44.753906 -13.097656 48.871094 -20.90625 C 49.707031 -22.503906 46.351562 -25.023438 45.089844 -23.007812 C 43.410156 -20.320312 41.3125 -18.726562 38.457031 -18.726562 C 34.761719 -18.726562 33.839844 -22.082031 36.695312 -28.214844 C 38.542969 -33.082031 40.722656 -35.6875 40.722656 -38.878906 C 40.722656 -40.722656 39.96875 -41.984375 37.785156 -41.984375 C 33.839844 -41.984375 33.25 -38.792969 30.480469 -38.792969 C 28.296875 -38.792969 28.632812 -41.984375 21.914062 -41.984375 C 7.472656 -41.984375 0.25 -24.351562 0.25 -12.679688 C 0.25 -5.207031 3.191406 0 8.902344 0 Z M 17.296875 -17.382812 C 14.695312 -17.382812 13.097656 -19.0625 13.097656 -21.914062 C 13.097656 -25.609375 15.871094 -29.722656 20.234375 -29.722656 C 22.921875 -29.722656 24.601562 -28.046875 24.601562 -25.273438 C 24.601562 -21.746094 21.664062 -17.382812 17.296875 -17.382812 Z M 17.296875 -17.382812 "/></g></g></g><g fill="#e19fae" fill-opacity="1"><g transform="translate(99.621945, 110.245341)"><g><path d="M 34.511719 -23.007812 C 32.832031 -20.488281 31.066406 -18.640625 28.550781 -18.558594 C 27.457031 -23.761719 23.007812 -30.480469 23.007812 -32.074219 C 23.007812 -35.433594 29.136719 -35.6875 29.054688 -38.375 C 29.136719 -41.058594 26.617188 -44.082031 21.410156 -44.082031 C 14.191406 -44.082031 8.230469 -31.570312 2.265625 -23.511719 L 1.929688 -23.007812 C -3.105469 -14.609375 -1.34375 -0.0820312 13.433594 -0.0820312 C 29.054688 -0.0820312 35.9375 -16.039062 38.289062 -20.90625 C 39.046875 -22.503906 35.855469 -25.023438 34.511719 -23.007812 Z M 10.410156 -17.382812 C 7.640625 -17.382812 5.710938 -18.894531 5.710938 -20.90625 C 7.640625 -23.34375 10.242188 -26.785156 12.34375 -29.890625 C 13.097656 -30.984375 13.769531 -30.984375 14.359375 -29.890625 C 15.535156 -27.625 16.207031 -25.527344 16.207031 -23.511719 C 16.207031 -20.066406 14.105469 -17.382812 10.410156 -17.382812 Z M 10.410156 -17.382812 "/></g></g></g><g fill="#e19fae" fill-opacity="1"><g transform="translate(132.116316, 110.245341)"><g><path d="M 5.710938 0 C 11.25 0 12.34375 -4.617188 12.34375 -8.902344 L 12.34375 -12.679688 C 12.34375 -20.152344 16.542969 -27.121094 21.410156 -27.121094 C 23.34375 -27.121094 24.601562 -26.113281 24.601562 -24.183594 C 24.601562 -20.738281 20.65625 -15.113281 20.65625 -8.734375 C 20.65625 -4.03125 22.503906 0 28.046875 0 C 39.378906 0 45.089844 -16.289062 47.777344 -20.90625 C 48.703125 -22.503906 45.34375 -25.023438 44 -23.007812 C 42.320312 -20.488281 40.722656 -18.726562 38.207031 -18.726562 C 35.519531 -18.726562 34.34375 -20.066406 34.34375 -22.921875 C 34.34375 -27.121094 37.03125 -29.808594 37.03125 -34.257812 C 37.03125 -38.457031 34.59375 -41.984375 29.472656 -41.984375 C 25.777344 -41.984375 22.417969 -40.21875 19.3125 -37.199219 C 17.464844 -35.351562 16.121094 -35.6875 17.046875 -39.128906 C 18.054688 -43.074219 20.992188 -47.609375 23.175781 -52.480469 C 25.609375 -57.855469 24.601562 -60.371094 21.160156 -60.371094 C 14.359375 -60.371094 10.496094 -47.527344 2.015625 -23.007812 C 0.335938 -18.222656 -0.839844 -12.929688 -0.839844 -8.648438 C -0.839844 -3.695312 0.839844 0 5.710938 0 Z M 5.710938 0 "/></g></g></g><g fill="#e19fae" fill-opacity="1"><g transform="translate(174.18268, 110.245341)"><g><path d="M 14.777344 0 C 24.601562 0 33.585938 -7.222656 40.976562 -20.90625 C 41.898438 -22.503906 38.542969 -25.023438 37.199219 -23.007812 C 29.304688 -11.585938 12.761719 -12.257812 12.761719 -23.511719 C 12.761719 -27.710938 14.945312 -31.65625 18.726562 -31.65625 C 21.242188 -31.65625 22.167969 -30.226562 22.167969 -28.71875 C 22.167969 -25.695312 20.234375 -25.359375 20.234375 -23.929688 C 20.234375 -22.839844 21.664062 -21.578125 24.601562 -21.578125 C 28.214844 -21.578125 33.167969 -24.433594 33.167969 -31.65625 C 33.167969 -37.113281 29.640625 -41.984375 21.578125 -41.984375 C 8.3125 -41.984375 0.25 -28.128906 0.25 -16.375 C 0.25 -7.640625 4.703125 0 14.777344 0 Z M 14.777344 0 "/></g></g></g><g fill="#e19fae" fill-opacity="1"><g transform="translate(209.447897, 110.245341)"><g><path d="M 8.902344 0 C 14.863281 0 19.898438 -5.457031 23.257812 -12.257812 L 23.59375 -12.257812 C 22.585938 -5.289062 25.023438 0 30.816406 0 C 40.136719 0 44.753906 -13.097656 48.871094 -20.90625 C 49.707031 -22.503906 46.351562 -25.023438 45.089844 -23.007812 C 43.410156 -20.320312 41.3125 -18.726562 38.457031 -18.726562 C 34.761719 -18.726562 33.839844 -22.082031 36.695312 -28.214844 C 38.542969 -33.082031 40.722656 -35.6875 40.722656 -38.878906 C 40.722656 -40.722656 39.96875 -41.984375 37.785156 -41.984375 C 33.839844 -41.984375 33.25 -38.792969 30.480469 -38.792969 C 28.296875 -38.792969 28.632812 -41.984375 21.914062 -41.984375 C 7.472656 -41.984375 0.25 -24.351562 0.25 -12.679688 C 0.25 -5.207031 3.191406 0 8.902344 0 Z M 17.296875 -17.382812 C 14.695312 -17.382812 13.097656 -19.0625 13.097656 -21.914062 C 13.097656 -25.609375 15.871094 -29.722656 20.234375 -29.722656 C 22.921875 -29.722656 24.601562 -28.046875 24.601562 -25.273438 C 24.601562 -21.746094 21.664062 -17.382812 17.296875 -17.382812 Z M 17.296875 -17.382812 "/></g></g></g><g fill="#e19fae" fill-opacity="1"><g transform="translate(252.605795, 110.245341)"><g><path d="M 35.097656 -23.007812 C 33.417969 -20.488281 31.824219 -18.726562 29.304688 -18.726562 C 25.527344 -18.726562 24.097656 -20.488281 24.097656 -22.839844 C 24.097656 -28.046875 27.710938 -31.570312 27.710938 -36.359375 C 27.710938 -40.890625 19.648438 -46.265625 11.753906 -46.265625 C 7.222656 -46.265625 4.28125 -42.152344 4.28125 -38.710938 C 4.28125 -35.6875 5.375 -34.59375 7.054688 -34.007812 C 5.625 -30.144531 3.527344 -25.273438 1.929688 -23.007812 C 0.839844 -21.410156 4.617188 -18.726562 5.710938 -20.90625 C 7.054688 -23.679688 9.824219 -29.390625 11.335938 -32.746094 C 14.695312 -31.488281 15.785156 -29.390625 15.785156 -28.550781 C 15.785156 -24.519531 9.90625 -16.625 9.90625 -8.816406 C 9.90625 -4.535156 12.257812 0 19.144531 0 C 30.480469 0 36.191406 -16.289062 38.878906 -20.90625 C 39.800781 -22.503906 36.441406 -25.023438 35.097656 -23.007812 Z M 35.097656 -23.007812 "/></g></g></g><g fill="#e19fae" fill-opacity="1"><g transform="translate(285.771889, 110.245341)"><g><path d="M 9.824219 0 C 14.945312 0 19.816406 -5.457031 23.257812 -12.257812 L 23.59375 -12.257812 C 22.671875 -5.289062 25.441406 0 30.816406 0 C 40.136719 0 44.753906 -13.097656 48.871094 -20.90625 C 49.707031 -22.503906 46.351562 -25.023438 45.089844 -23.007812 C 43.410156 -20.320312 41.3125 -18.726562 38.457031 -18.726562 C 34.761719 -18.726562 33.839844 -22.082031 36.695312 -28.214844 L 46.183594 -52.480469 C 48.367188 -57.265625 47.191406 -60.371094 44.25 -60.371094 C 41.730469 -60.371094 38.625 -58.945312 35.433594 -51.21875 C 31.824219 -42.570312 31.824219 -37.953125 30.480469 -37.953125 C 28.296875 -37.953125 28.632812 -41.984375 21.914062 -41.984375 C 7.472656 -41.984375 0.25 -24.351562 0.25 -11.921875 C 0.25 -5.207031 3.191406 0 9.824219 0 Z M 17.464844 -17.382812 C 14.273438 -17.382812 13.097656 -19.480469 13.097656 -21.914062 C 13.097656 -25.609375 15.871094 -29.722656 19.984375 -29.722656 C 23.257812 -29.722656 24.601562 -27.710938 24.601562 -25.273438 C 24.601562 -21.746094 21.664062 -17.382812 17.464844 -17.382812 Z M 17.464844 -17.382812 "/></g></g></g><g fill="#e19fae" fill-opacity="1"><g transform="translate(328.929799, 110.245341)"><g><path d="M 34.511719 -23.007812 C 32.832031 -20.488281 31.066406 -18.640625 28.550781 -18.558594 C 27.457031 -23.761719 23.007812 -30.480469 23.007812 -32.074219 C 23.007812 -35.433594 29.136719 -35.6875 29.054688 -38.375 C 29.136719 -41.058594 26.617188 -44.082031 21.410156 -44.082031 C 14.191406 -44.082031 8.230469 -31.570312 2.265625 -23.511719 L 1.929688 -23.007812 C -3.105469 -14.609375 -1.34375 -0.0820312 13.433594 -0.0820312 C 29.054688 -0.0820312 35.9375 -16.039062 38.289062 -20.90625 C 39.046875 -22.503906 35.855469 -25.023438 34.511719 -23.007812 Z M 10.410156 -17.382812 C 7.640625 -17.382812 5.710938 -18.894531 5.710938 -20.90625 C 7.640625 -23.34375 10.242188 -26.785156 12.34375 -29.890625 C 13.097656 -30.984375 13.769531 -30.984375 14.359375 -29.890625 C 15.535156 -27.625 16.207031 -25.527344 16.207031 -23.511719 C 16.207031 -20.066406 14.105469 -17.382812 10.410156 -17.382812 Z M 10.410156 -17.382812 "/></g></g></g><g clip-path="url(#13d9b1880f)"><g clip-path="url(#40cd4d1428)"><g clip-path="url(#1c48beed54)"><path fill="#e19fae" d="M 180.070312 138.933594 L 191.699219 135.214844 L 194.945312 145.375 L 183.320312 149.089844 Z M 180.070312 138.933594 " fill-opacity="1" fill-rule="nonzero"/></g></g></g><g clip-path="url(#4ba1a20742)"><g clip-path="url(#c97760baf1)"><g clip-path="url(#d7908854e4)"><path fill="#d8798f" d="M 285.15625 126.820312 L 298.992188 131.546875 L 294.863281 143.632812 L 281.027344 138.90625 Z M 285.15625 126.820312 " fill-opacity="1" fill-rule="nonzero"/></g></g></g><g clip-path="url(#58c37d6d15)"><g clip-path="url(#1ea0aa5355)"><g clip-path="url(#92f1b8650c)"><path fill="#e19fae" d="M 290.617188 36.585938 L 300.269531 47.5625 L 290.679688 55.996094 L 281.023438 45.019531 Z M 290.617188 36.585938 " fill-opacity="1" fill-rule="nonzero"/></g></g></g><g clip-path="url(#b14e31b057)"><g clip-path="url(#2d6d6404b2)"><g clip-path="url(#cdc01d308c)"><path fill="#d8798f" d="M 80.207031 140.972656 L 91.019531 137.242188 L 94.277344 146.6875 L 83.46875 150.417969 Z M 80.207031 140.972656 " fill-opacity="1" fill-rule="nonzero"/></g></g></g></svg>