<svg xmlns="http://www.w3.org/2000/svg" xmlns:xlink="http://www.w3.org/1999/xlink" width="500" zoomAndPan="magnify" viewBox="0 0 375 374.999991" height="500" preserveAspectRatio="xMidYMid meet" version="1.0"><path fill="#b28e76" d="M 302.921875 255.097656 C 294.089844 259.726562 284.082031 258.40625 274.589844 254.433594 C 278.34375 268.625 281.507812 282.960938 284.082031 297.367188 C 285.773438 306.703125 287.246094 316.1875 287.910156 325.671875 C 288.425781 332.65625 289.234375 341.035156 286.730469 347.800781 C 281.800781 361.03125 262.59375 366.398438 250.378906 369.191406 C 235.804688 372.5 216.671875 375 202.761719 367.867188 C 195.40625 364.121094 192.828125 356.03125 190.03125 348.679688 C 188.78125 345.300781 187.53125 341.699219 186.648438 338.023438 C 185.46875 342.949219 183.628906 347.800781 181.789062 352.210938 C 178.257812 360.664062 175.3125 366.546875 166.335938 369.488281 C 150.585938 374.707031 131.453125 371.839844 115.925781 367.28125 C 103.78125 363.753906 87.667969 357.429688 85.53125 343.316406 C 82.882812 325.890625 87.296875 306.703125 90.683594 289.648438 C 93.039062 277.667969 95.6875 265.757812 98.851562 253.996094 C 88.476562 258.40625 76.773438 260.023438 67.132812 253.039062 C 60.511719 248.332031 56.464844 241.203125 56.242188 233.042969 C 56.023438 221.941406 61.984375 211.355469 68.386719 202.753906 C 79.277344 188.050781 93.628906 176.070312 108.273438 165.261719 C 108.859375 164.820312 109.449219 165.113281 109.742188 165.554688 L 114.011719 162.246094 C 105.621094 158.351562 98.042969 153.277344 92.230469 145.925781 C 79.054688 129.09375 79.941406 105.714844 85.089844 86.085938 C 86.5625 80.277344 88.625 74.691406 91.347656 69.324219 C 92.375 67.339844 92.375 67.265625 91.863281 65.28125 C 91.273438 62.78125 90.242188 60.429688 89.652344 57.929688 C 87.296875 48.667969 86.269531 38.449219 89.652344 29.257812 C 96.792969 9.703125 123.503906 0 142.125 7.570312 C 157.0625 13.527344 167 27.496094 172.296875 42.199219 C 179.507812 40.800781 188.339844 39.332031 195.257812 41.976562 C 201.4375 25.070312 214.097656 8.820312 232.714844 5.367188 C 252.585938 1.691406 276.648438 15.4375 279.59375 36.167969 C 281.066406 46.460938 278.046875 55.429688 275.691406 65.207031 C 275.105469 67.707031 275.621094 68 276.871094 70.574219 C 277.753906 72.484375 278.636719 74.46875 279.371094 76.457031 C 281.726562 82.484375 283.347656 88.804688 284.375 95.128906 C 287.6875 114.535156 286.070312 135.636719 271.425781 150.265625 C 267.597656 154.085938 263.253906 157.101562 258.691406 159.675781 L 261.859375 162.984375 C 262.152344 162.613281 262.667969 162.394531 263.183594 162.835938 C 279.445312 174.890625 295.5625 188.492188 306.75 205.546875 C 317.050781 221.058594 323.011719 244.511719 302.921875 255.097656 Z M 302.921875 255.097656 " fill-opacity="1" fill-rule="nonzero"/><path fill="#ebd29c" d="M 227.269531 241.71875 C 227.269531 253.773438 224.324219 264.875 219.320312 273.992188 L 215.347656 280.164062 C 207.621094 290.679688 196.65625 297.148438 184.585938 297.148438 C 161.039062 297.148438 141.902344 272.300781 141.902344 241.71875 C 141.902344 211.136719 161.039062 186.285156 184.585938 186.285156 C 208.136719 186.285156 227.269531 211.136719 227.269531 241.71875 Z M 227.269531 241.71875 " fill-opacity="1" fill-rule="nonzero"/><path fill="#000000" d="M 302.921875 255.097656 C 294.089844 259.726562 284.082031 258.40625 274.589844 254.433594 C 278.34375 268.550781 281.433594 282.960938 284.082031 297.292969 C 285.773438 306.632812 287.246094 316.039062 287.910156 325.597656 C 288.425781 332.582031 289.234375 340.960938 286.730469 347.726562 C 281.800781 360.957031 262.59375 366.324219 250.378906 369.117188 C 235.804688 372.425781 216.671875 374.925781 202.761719 367.796875 C 195.40625 364.046875 192.828125 355.960938 190.03125 348.609375 C 188.78125 345.226562 187.53125 341.625 186.648438 337.949219 C 185.46875 342.875 183.628906 347.726562 181.789062 352.136719 C 178.257812 360.589844 175.3125 366.472656 166.335938 369.414062 C 150.585938 374.632812 131.453125 371.765625 115.925781 367.207031 C 103.78125 363.605469 87.667969 357.355469 85.53125 343.242188 C 82.882812 325.820312 87.296875 306.632812 90.683594 289.574219 C 93.039062 277.59375 95.6875 265.683594 98.851562 253.921875 C 88.476562 258.332031 76.773438 259.949219 67.132812 252.964844 C 60.511719 248.261719 56.464844 241.128906 56.242188 232.96875 C 56.023438 221.867188 61.984375 211.28125 68.386719 202.679688 C 79.277344 187.976562 93.628906 175.996094 108.273438 165.1875 C 109.449219 164.304688 110.554688 166.289062 109.449219 167.171875 C 94.289062 178.421875 79.128906 190.992188 68.386719 206.652344 C 58.378906 221.207031 52.269531 243.113281 71.625 253.113281 C 88.84375 262.007812 111.070312 246.570312 123.285156 235.027344 C 124.316406 234 125.933594 235.617188 124.902344 236.644531 C 117.984375 243.1875 109.816406 248.847656 101.207031 252.890625 C 101.355469 253.113281 101.355469 253.40625 101.28125 253.699219 C 98.042969 265.757812 95.320312 277.960938 92.890625 290.238281 C 89.652344 306.632812 85.753906 324.496094 87.59375 341.257812 C 89.210938 356.253906 106.136719 362.28125 118.871094 365.738281 C 133.585938 369.707031 151.910156 372.351562 166.628906 366.988281 C 175.828125 363.679688 178.550781 355.152344 181.644531 346.476562 C 183.554688 341.109375 185.542969 335.15625 185.542969 329.421875 C 185.542969 329.347656 185.542969 329.273438 185.542969 329.125 C 185.765625 327.949219 187.75 328.023438 187.824219 329.347656 C 187.898438 337.214844 191.136719 345.519531 194.226562 352.652344 C 196.140625 357.0625 197.832031 361.839844 202.027344 364.632812 C 204.75 366.472656 207.988281 367.429688 211.152344 368.164062 C 226.976562 371.839844 245.003906 369.046875 260.164062 363.972656 C 267.230469 361.621094 274.589844 358.460938 280.109375 353.3125 C 285.039062 348.679688 285.921875 343.019531 286.144531 336.476562 C 286.585938 318.90625 282.90625 301.042969 279.296875 283.914062 C 277.164062 273.769531 274.882812 263.625 272.160156 253.554688 C 272.085938 253.40625 272.085938 253.257812 272.160156 253.113281 C 263.109375 248.773438 254.71875 242.230469 248.609375 236.496094 C 247.582031 235.46875 249.125 233.925781 250.230469 234.878906 C 256.265625 240.542969 263.253906 245.464844 270.542969 249.363281 C 281.066406 254.949219 294.3125 258.699219 304.835938 251.128906 C 311.605469 246.273438 314.992188 238.703125 314.402344 230.46875 C 313.59375 219.148438 306.96875 208.5625 300.125 199.886719 C 289.453125 186.285156 276.0625 174.964844 262.226562 164.746094 C 261.046875 163.863281 262.226562 161.953125 263.402344 162.761719 C 279.667969 174.820312 295.785156 188.417969 306.96875 205.472656 C 317.050781 221.058594 323.011719 244.511719 302.921875 255.097656 Z M 156.105469 102.847656 C 159.640625 101.746094 161.847656 98.953125 161.109375 96.523438 C 160.375 94.171875 156.917969 93.144531 153.382812 94.246094 C 149.851562 95.347656 147.644531 98.140625 148.378906 100.570312 C 149.117188 102.996094 152.574219 103.949219 156.105469 102.847656 Z M 167.070312 125.710938 C 165.601562 125.929688 166.261719 128.136719 167.660156 127.917969 C 176.34375 126.371094 182.15625 119.535156 184.511719 111.449219 C 184.734375 111.449219 185.027344 111.449219 185.25 111.375 C 187.675781 119.460938 193.417969 126.371094 202.175781 127.917969 C 203.574219 128.136719 204.234375 126.003906 202.761719 125.710938 C 194.59375 124.3125 189.296875 117.699219 187.234375 110.125 C 188.929688 108.582031 191.136719 106.082031 192.535156 102.332031 C 193.269531 100.421875 191.796875 98.363281 189.8125 98.363281 L 179.363281 98.363281 C 177.300781 98.363281 175.902344 100.421875 176.640625 102.332031 C 178.183594 106.523438 180.6875 109.097656 182.453125 110.566406 C 180.316406 117.992188 175.09375 124.3125 167.070312 125.710938 Z M 220.277344 274.578125 C 231.097656 254.289062 231.316406 228.265625 219.835938 208.195312 C 210.859375 192.460938 193.492188 181.289062 175.019531 186.582031 C 155.589844 192.167969 144.332031 212.3125 141.535156 231.132812 C 138.59375 251.347656 144.039062 274.652344 159.933594 288.546875 C 178.109375 304.425781 202.25 299.132812 216.304688 280.753906 C 217.1875 279.652344 215.199219 278.476562 214.316406 279.652344 C 201.660156 296.117188 179.949219 301.707031 163.023438 288.179688 C 147.863281 276.121094 141.902344 255.242188 143.226562 236.570312 C 144.554688 218.558594 153.308594 199.003906 170.308594 190.769531 C 187.234375 182.683594 205.414062 190.917969 215.496094 205.546875 C 228.960938 225.25 229.332031 252.671875 218.292969 273.476562 C 217.628906 274.726562 219.617188 275.902344 220.277344 274.578125 Z M 219.027344 100.570312 C 219.761719 98.214844 217.554688 95.347656 214.023438 94.246094 C 210.492188 93.144531 207.03125 94.171875 206.296875 96.523438 C 205.558594 98.878906 207.769531 101.746094 211.300781 102.847656 C 214.832031 103.949219 218.292969 102.921875 219.027344 100.570312 Z M 135.574219 170.1875 C 136.972656 170.628906 137.5625 168.421875 136.164062 167.980469 C 123.285156 164.011719 109.964844 159.675781 99.660156 150.558594 C 85.089844 137.546875 82.292969 118.136719 84.722656 99.613281 C 85.53125 93.511719 86.785156 87.554688 88.695312 81.675781 C 90.167969 77.191406 93.113281 72.851562 94.289062 68.441406 C 94.953125 65.871094 93.699219 63.8125 92.890625 61.089844 C 91.492188 56.3125 90.390625 51.460938 89.949219 46.535156 C 89.066406 35.875 91.640625 25.4375 100.105469 18.304688 C 109.523438 10.4375 121.886719 5.292969 134.25 7.570312 C 152.5 10.878906 164.789062 27.199219 170.53125 43.742188 C 170.75 44.328125 171.265625 44.625 171.929688 44.550781 C 178.921875 43.226562 188.78125 41.242188 195.476562 44.402344 C 196.140625 44.695312 196.875 44.476562 197.171875 43.742188 C 202.320312 28.890625 212.550781 14.410156 227.859375 9.042969 C 249.199219 1.542969 276.574219 16.6875 277.753906 40.066406 C 277.972656 44.992188 277.386719 49.84375 276.355469 54.621094 C 275.546875 58.296875 273.191406 62.636719 272.894531 66.238281 C 272.75 68.664062 274.515625 70.796875 275.546875 73.074219 C 278.046875 78.515625 279.8125 84.320312 281.136719 90.203125 C 285.480469 109.464844 285.40625 131.738281 271.425781 147.101562 C 260.972656 158.570312 245.816406 163.644531 231.464844 167.980469 C 230.066406 168.421875 230.65625 170.628906 232.054688 170.1875 C 246.183594 165.851562 260.828125 160.996094 271.5 150.265625 C 286.144531 135.707031 287.761719 114.535156 284.449219 95.128906 C 283.347656 88.734375 281.726562 82.484375 279.445312 76.457031 C 278.710938 74.46875 277.828125 72.484375 276.945312 70.574219 C 275.691406 68 275.175781 67.707031 275.765625 65.207031 C 278.121094 55.429688 281.136719 46.460938 279.667969 36.167969 C 276.722656 15.4375 252.660156 1.691406 232.789062 5.367188 C 214.242188 8.820312 201.511719 25.070312 195.332031 41.976562 C 188.414062 39.332031 179.507812 40.800781 172.371094 42.199219 C 167.070312 27.421875 157.0625 13.527344 142.199219 7.570312 C 123.503906 0 96.792969 9.703125 89.652344 29.257812 C 86.34375 38.375 87.296875 48.667969 89.652344 57.929688 C 90.316406 60.429688 91.273438 62.78125 91.863281 65.28125 C 92.375 67.339844 92.304688 67.339844 91.347656 69.324219 C 88.695312 74.691406 86.636719 80.351562 85.089844 86.085938 C 79.941406 105.714844 79.054688 129.164062 92.230469 145.925781 C 102.898438 159.527344 119.679688 165.335938 135.574219 170.1875 Z M 135.574219 170.1875 " fill-opacity="1" fill-rule="nonzero"/></svg>