<svg xmlns="http://www.w3.org/2000/svg" xmlns:xlink="http://www.w3.org/1999/xlink" width="500" zoomAndPan="magnify" viewBox="0 0 375 187.499995" height="250" preserveAspectRatio="xMidYMid meet" version="1.0"><path fill="#ebd29c" d="M 360.046875 151.453125 C 355.992188 164.25 345.058594 173.007812 332.9375 177.828125 C 325.855469 180.652344 318.332031 182.015625 310.835938 183.230469 C 302.886719 184.519531 294.863281 185.355469 286.800781 185.414062 C 272.664062 185.511719 258.535156 184.542969 244.398438 184.3125 C 236.027344 184.503906 227.566406 183.511719 219.292969 182.761719 C 207.398438 181.683594 195.382812 180.304688 183.890625 176.933594 C 165.191406 179.59375 146.492188 182.257812 127.789062 184.917969 C 120.714844 185.925781 112.648438 187 105.410156 185.617188 C 105.363281 185.625 105.328125 185.628906 105.28125 185.628906 C 75.988281 186.273438 43.375 171.375 30.363281 144.015625 C 30.328125 143.941406 30.304688 143.859375 30.28125 143.785156 C 30.253906 143.726562 30.222656 143.675781 30.191406 143.613281 C 25.671875 131.9375 23.082031 119.542969 22.730469 107.015625 C 22.636719 103.472656 22.726562 99.902344 23 96.339844 C 14.332031 90.046875 9.980469 78.429688 13.449219 68.074219 C 16.945312 57.65625 27.546875 50.757812 38.410156 51.171875 C 38.445312 51.171875 38.476562 51.179688 38.511719 51.1875 C 40.085938 48.949219 41.773438 46.792969 43.582031 44.734375 C 58.414062 27.886719 80.964844 16.8125 103.59375 17.730469 C 104.222656 12.789062 107.816406 8.898438 111.875 6.128906 C 112.527344 3.628906 114.507812 1.5625 117.21875 0.785156 C 119.894531 0.0234375 122.855469 0.910156 124.828125 2.816406 C 126.347656 2.984375 127.84375 3.230469 129.300781 3.554688 C 129.511719 3.535156 129.730469 3.550781 129.976562 3.621094 C 130.25 3.703125 130.511719 3.800781 130.769531 3.90625 C 142.476562 6.914062 152.351562 14.601562 160.175781 23.921875 C 169.265625 34.753906 175.304688 48.039062 175.941406 62.265625 C 176.699219 64.503906 177.378906 66.785156 177.992188 69.082031 C 190.003906 61.851562 201.953125 53.839844 215.140625 48.996094 C 226.53125 44.816406 238.730469 43.683594 250.75 45.148438 C 261.597656 46.476562 273.09375 49.507812 281.910156 56.242188 C 294.367188 65.753906 299.746094 79.816406 302.921875 94.425781 C 314.414062 92.847656 326.5 91.566406 337.332031 96.628906 C 346.871094 101.078125 351.6875 109.4375 352.355469 119.699219 C 352.371094 119.875 352.347656 120.039062 352.3125 120.1875 C 361.023438 128.042969 363.617188 140.183594 360.046875 151.453125 Z M 360.046875 151.453125 " fill-opacity="1" fill-rule="nonzero"/><path fill="#bf8a6e" d="M 72.253906 120.757812 C 64.183594 122.484375 53.8125 122.476562 52.117188 112.378906 C 50.730469 104.148438 56.851562 97.9375 63.824219 94.839844 C 62.96875 104.160156 66.296875 113.570312 72.253906 120.757812 Z M 296.0625 81.757812 C 292.285156 71.726562 285.875 62.210938 276.539062 56.625 C 267.078125 50.964844 255.566406 48.519531 244.652344 47.957031 C 232.613281 47.335938 220.800781 49.714844 209.867188 54.78125 C 204.6875 57.183594 199.679688 59.960938 194.730469 62.871094 C 197.21875 70.539062 204.398438 76.867188 211.148438 80.773438 C 219.222656 85.445312 229.8125 87.3125 238.953125 88.714844 C 258.523438 91.699219 277.605469 88.320312 296.0625 81.757812 Z M 125.421875 56.492188 C 122.285156 56.492188 119.746094 60.863281 119.746094 66.257812 C 119.746094 71.652344 122.285156 76.023438 125.421875 76.023438 C 128.554688 76.023438 131.09375 71.652344 131.09375 66.257812 C 131.09375 60.863281 128.554688 56.492188 125.421875 56.492188 Z M 125.421875 56.492188 " fill-opacity="1" fill-rule="nonzero"/><path fill="#725648" d="M 352.324219 120.1875 C 352.355469 120.039062 352.378906 119.875 352.371094 119.699219 C 351.703125 109.445312 346.886719 101.085938 337.34375 96.628906 C 326.503906 91.566406 314.429688 92.847656 302.9375 94.425781 C 299.757812 79.808594 294.378906 65.753906 281.925781 56.242188 C 273.109375 49.507812 261.609375 46.46875 250.765625 45.148438 C 238.753906 43.683594 226.550781 44.816406 215.15625 48.996094 C 201.96875 53.832031 190.019531 61.851562 178.007812 69.082031 C 177.394531 66.777344 176.703125 64.503906 175.957031 62.265625 C 175.320312 48.039062 169.28125 34.753906 160.191406 23.921875 C 152.359375 14.601562 142.484375 6.914062 130.777344 3.90625 C 130.515625 3.800781 130.25 3.710938 129.984375 3.621094 C 129.738281 3.550781 129.515625 3.535156 129.308594 3.554688 C 127.84375 3.230469 126.355469 2.984375 124.835938 2.816406 C 122.863281 0.917969 119.902344 0.0234375 117.226562 0.785156 C 114.515625 1.5625 112.535156 3.621094 111.882812 6.128906 C 107.824219 8.898438 104.230469 12.796875 103.601562 17.730469 C 80.972656 16.8125 58.421875 27.886719 43.589844 44.734375 C 41.773438 46.792969 40.089844 48.949219 38.519531 51.1875 C 38.484375 51.1875 38.453125 51.171875 38.417969 51.171875 C 27.546875 50.757812 16.945312 57.65625 13.449219 68.082031 C 9.980469 78.4375 14.332031 90.054688 23 96.34375 C 22.726562 99.917969 22.636719 103.488281 22.730469 107.023438 C 23.082031 119.550781 25.671875 131.9375 30.191406 143.621094 C 30.214844 143.679688 30.253906 143.734375 30.28125 143.792969 C 30.304688 143.867188 30.328125 143.941406 30.363281 144.023438 C 43.375 171.375 75.988281 186.273438 105.28125 185.636719 C 105.328125 185.636719 105.363281 185.625 105.410156 185.625 C 112.648438 187.007812 120.714844 185.925781 127.789062 184.925781 C 146.492188 182.265625 165.191406 179.601562 183.890625 176.941406 C 195.382812 180.3125 207.398438 181.695312 219.292969 182.769531 C 227.566406 183.527344 236.027344 184.511719 244.398438 184.320312 C 258.535156 184.550781 272.664062 185.519531 286.800781 185.421875 C 294.863281 185.363281 302.886719 184.535156 310.835938 183.238281 C 318.332031 182.015625 325.855469 180.660156 332.9375 177.835938 C 345.050781 173.003906 355.992188 164.257812 360.046875 151.460938 C 363.617188 140.183594 361.023438 128.042969 352.324219 120.1875 Z M 333.824219 98.753906 C 342.5 102.035156 347.546875 108.710938 348.785156 117.445312 C 335.996094 108.890625 320.195312 110.097656 305.582031 112.148438 C 305.539062 110.535156 305.433594 108.925781 305.265625 107.339844 C 305.257812 107.257812 305.234375 107.191406 305.21875 107.117188 C 305.21875 107.042969 305.21875 106.976562 305.207031 106.894531 C 304.714844 103.835938 304.199219 100.753906 303.589844 97.679688 C 313.621094 96.292969 324.148438 95.09375 333.824219 98.753906 Z M 209.875 54.78125 C 220.808594 49.714844 232.613281 47.335938 244.660156 47.957031 C 255.566406 48.519531 267.085938 50.964844 276.546875 56.625 C 285.882812 62.210938 292.292969 71.726562 296.070312 81.757812 C 296.070312 81.757812 296.070312 81.765625 296.070312 81.765625 C 277.613281 88.328125 258.523438 91.699219 238.960938 88.707031 C 229.828125 87.308594 219.238281 85.441406 211.15625 80.765625 C 204.40625 76.859375 197.226562 70.53125 194.738281 62.863281 C 199.679688 59.960938 204.695312 57.183594 209.875 54.78125 Z M 16.664062 68.96875 C 19.480469 60.605469 27.679688 55.054688 36.289062 54.542969 C 29.179688 65.894531 24.941406 79.066406 23.378906 92.425781 C 16.8125 86.78125 13.863281 77.296875 16.664062 68.96875 Z M 33.3125 142.472656 C 25.769531 122.855469 23.695312 101.035156 28.933594 80.558594 C 34.5625 58.558594 48.410156 40.113281 68.542969 29.398438 C 79.804688 23.40625 92.390625 20.308594 105.15625 21.144531 C 105.847656 21.191406 106.304688 20.878906 106.550781 20.425781 C 106.71875 20.183594 106.832031 19.863281 106.824219 19.476562 C 106.757812 15.617188 109.113281 12.507812 111.996094 10.171875 C 113.21875 13.988281 117.300781 16.683594 121.335938 15.625 C 125.199219 14.609375 127.769531 10.328125 126.902344 6.445312 C 127.769531 6.59375 128.628906 6.773438 129.472656 6.972656 C 135.257812 9.121094 137.332031 18.507812 130.652344 21.152344 C 128.679688 21.929688 129.539062 25.160156 131.539062 24.367188 C 138.058594 21.789062 139.402344 14.773438 136.800781 9.5 C 144.972656 13.1875 152.011719 19.351562 157.828125 26.28125 C 166.332031 36.40625 172.023438 48.980469 172.613281 62.28125 C 172.585938 62.507812 172.601562 62.753906 172.695312 63.027344 C 179.585938 83.425781 180.839844 106.601562 173.191406 126.964844 C 162.5625 128.078125 152.011719 129.886719 141.625 132.441406 C 134.035156 134.308594 126.539062 136.5625 119.175781 139.191406 C 112.433594 141.597656 105.378906 144.074219 99.445312 148.164062 C 90.152344 154.574219 83.589844 167.417969 91.523438 177.53125 C 92.945312 179.347656 94.554688 180.816406 96.289062 181.984375 C 70.734375 179.777344 44.566406 165.960938 33.3125 142.472656 Z M 244.949219 180.976562 C 243.117188 180.949219 241.296875 180.925781 239.464844 180.925781 C 239.371094 180.925781 239.289062 180.941406 239.199219 180.949219 C 233.753906 180.761719 228.308594 180.191406 222.9375 179.742188 C 210.023438 178.652344 196.953125 177.324219 184.484375 173.621094 C 184.089844 173.503906 183.75 173.523438 183.453125 173.644531 C 169.207031 175.671875 154.960938 177.695312 140.710938 179.726562 C 133.265625 180.785156 125.804688 182.097656 118.316406 182.785156 C 111.863281 183.378906 105.058594 183.207031 99.3125 179.882812 C 93.664062 176.613281 90.175781 170.761719 91.605469 164.160156 C 93.042969 157.535156 98.089844 152.667969 103.757812 149.378906 C 115.203125 142.734375 129.082031 139.007812 141.839844 135.820312 C 157.109375 132.011719 172.710938 129.820312 188.425781 129.167969 C 190.566406 129.078125 190.574219 125.746094 188.425781 125.832031 C 184.566406 125.996094 180.714844 126.25 176.867188 126.589844 C 182.996094 109.398438 183.046875 90.234375 178.859375 72.445312 C 183.171875 69.867188 187.46875 67.199219 191.804688 64.597656 C 194.398438 71.71875 200.433594 77.527344 206.519531 81.75 C 214.875 87.550781 225.714844 89.765625 235.570312 91.5 C 256.660156 95.210938 277.183594 92.019531 297.167969 84.890625 C 299.542969 92.242188 300.746094 99.859375 301.960938 107.488281 C 304.003906 127.195312 297.316406 148.933594 283.777344 163.449219 C 276.242188 171.53125 266.484375 177.570312 255.601562 179.816406 C 252.082031 180.546875 248.527344 180.882812 244.949219 180.976562 Z M 356.289062 152.164062 C 351.679688 164.539062 339.707031 172.359375 327.59375 176.214844 C 314.25 180.460938 299.351562 182.132812 285.386719 182.089844 C 277.652344 182.066406 269.917969 181.777344 262.179688 181.496094 C 280.703125 175.324219 294.765625 159.03125 301.046875 140.6875 C 303.746094 132.8125 305.441406 124.046875 305.605469 115.492188 C 318.925781 113.585938 333.03125 112.171875 345.222656 119.171875 C 357.125 125.996094 360.988281 139.546875 356.289062 152.164062 Z M 81.070312 130.679688 C 65.910156 141.585938 44.308594 134.804688 38.269531 117.15625 C 32.3125 99.761719 45.25 81.855469 63.25 80.601562 C 65.402344 80.453125 65.378906 83.789062 63.25 83.9375 C 47.300781 85.039062 36.253906 101.050781 41.484375 116.269531 C 46.898438 132.027344 66.082031 137.375 79.386719 127.796875 C 81.128906 126.542969 82.796875 129.441406 81.070312 130.679688 Z M 48.929688 113.5625 C 51.582031 126.449219 65.757812 126.0625 75.773438 123.335938 C 76.476562 123.144531 76.832031 122.648438 76.921875 122.097656 C 77.0625 121.601562 76.972656 121.03125 76.507812 120.550781 C 69.585938 113.394531 65.554688 102.851562 67.402344 92.902344 C 67.601562 91.804688 66.816406 91.039062 65.972656 90.855469 C 65.667969 90.722656 65.304688 90.699219 64.882812 90.847656 C 55.332031 94.242188 46.671875 102.585938 48.929688 113.5625 Z M 63.816406 94.847656 C 62.96875 104.160156 66.296875 113.578125 72.253906 120.765625 C 64.183594 122.492188 53.8125 122.484375 52.117188 112.386719 C 50.722656 104.148438 56.84375 97.945312 63.816406 94.847656 Z M 99.792969 37.867188 C 105.476562 35.992188 112.253906 39.335938 113.683594 45.3125 C 115.1875 51.617188 110.082031 57.398438 104.054688 58.160156 C 101.925781 58.425781 101.957031 55.09375 104.054688 54.824219 C 108.261719 54.292969 111.78125 49.589844 110.238281 45.394531 C 108.839844 41.578125 104.371094 39.867188 100.683594 41.082031 C 98.628906 41.757812 97.761719 38.535156 99.792969 37.867188 Z M 99.792969 37.867188 " fill-opacity="1" fill-rule="nonzero"/></svg>